<svg width="24" height="25" viewBox="0 0 24 25" fill="none" xmlns="http://www.w3.org/2000/svg">
<g clip-path="url(#clip0_535_6525)">
<path d="M22.3132 4.98889H5.70644C5.51187 4.98889 5.35413 5.14659 5.35413 5.3412C5.35413 5.53582 5.51187 5.69352 5.70644 5.69352H22.3132C22.8548 5.69352 23.2954 6.13414 23.2954 6.67577V14.1773C23.2954 14.7189 22.8548 15.1595 22.3132 15.1595H21.4695V12.864C21.4695 12.7705 21.4324 12.6809 21.3664 12.6149C21.3003 12.5488 21.2107 12.5117 21.1172 12.5117H2.88277C2.78933 12.5117 2.69972 12.5488 2.63364 12.6149C2.56757 12.6809 2.53045 12.7705 2.53045 12.864V15.1595H1.68688C1.14525 15.1595 0.704627 14.7189 0.704627 14.1773V6.67577C0.704627 6.13414 1.14525 5.69352 1.68688 5.69352H4.29719C4.49176 5.69352 4.6495 5.53582 4.6495 5.3412C4.6495 5.14659 4.49176 4.98889 4.29719 4.98889H1.68688C0.756722 4.98889 0 5.74561 0 6.67577V14.1773C0 15.1074 0.756722 15.8641 1.68688 15.8641H5.35427C5.44771 15.8641 5.53732 15.827 5.60339 15.761C5.66946 15.6949 5.70658 15.6053 5.70658 15.5118C5.70658 15.4184 5.66946 15.3288 5.60339 15.2627C5.53732 15.1966 5.44771 15.1595 5.35427 15.1595H3.23508V14.5402H17.2365C17.33 14.5402 17.4196 14.5031 17.4856 14.437C17.5517 14.3709 17.5888 14.2813 17.5888 14.1879C17.5888 14.0944 17.5517 14.0048 17.4856 13.9388C17.4196 13.8727 17.33 13.8356 17.2365 13.8356H3.23508V13.2163H20.7649V13.8356H18.6458C18.5523 13.8356 18.4627 13.8727 18.3967 13.9388C18.3306 14.0048 18.2935 14.0944 18.2935 14.1879C18.2935 14.2813 18.3306 14.3709 18.3967 14.437C18.4627 14.5031 18.5523 14.5402 18.6458 14.5402H20.7649V15.1595H6.76347C6.67004 15.1595 6.58042 15.1966 6.51435 15.2627C6.44828 15.3288 6.41116 15.4184 6.41116 15.5118C6.41116 15.6053 6.44828 15.6949 6.51435 15.761C6.58042 15.827 6.67004 15.8641 6.76347 15.8641H22.3132C23.2433 15.8641 24 15.1074 24 14.1773V6.67577C24 5.74566 23.2433 4.98889 22.3132 4.98889Z" fill="#A4A4A4"/>
<path d="M21.1173 7.85349C21.2108 7.85349 21.3004 7.81637 21.3665 7.7503C21.4325 7.68423 21.4696 7.59462 21.4696 7.50118C21.4696 7.40774 21.4325 7.31813 21.3665 7.25205C21.3004 7.18598 21.2108 7.14886 21.1173 7.14886H20.0754C19.9819 7.14886 19.8923 7.18598 19.8263 7.25205C19.7602 7.31813 19.7231 7.40774 19.7231 7.50118C19.7231 7.59462 19.7602 7.68423 19.8263 7.7503C19.8923 7.81637 19.9819 7.85349 20.0754 7.85349H21.1173ZM18.4678 7.85349C18.5613 7.85349 18.6509 7.81637 18.717 7.7503C18.783 7.68423 18.8202 7.59462 18.8202 7.50118C18.8202 7.40774 18.783 7.31813 18.717 7.25205C18.6509 7.18598 18.5613 7.14886 18.4678 7.14886H11.7994C11.706 7.14886 11.6164 7.18598 11.5503 7.25205C11.4843 7.31813 11.4471 7.40774 11.4471 7.50118C11.4471 7.59462 11.4843 7.68423 11.5503 7.7503C11.6164 7.81637 11.706 7.85349 11.7994 7.85349H18.4678ZM6.62744 16.8068C6.534 16.8068 6.44439 16.8439 6.37832 16.91C6.31225 16.9761 6.27513 17.0657 6.27513 17.1591C6.27513 17.1696 6.26381 18.214 5.28644 18.9087C5.22551 18.952 5.17992 19.0136 5.15627 19.0845C5.13263 19.1554 5.13215 19.232 5.15491 19.3032C5.17767 19.3744 5.22249 19.4365 5.28289 19.4806C5.34329 19.5246 5.41613 19.5483 5.49088 19.5482C5.56395 19.5483 5.63521 19.5255 5.69471 19.483C6.96519 18.58 6.9798 17.2167 6.9798 17.1591C6.9798 17.1128 6.97068 17.067 6.95297 17.0243C6.93526 16.9815 6.9093 16.9427 6.87658 16.91C6.84386 16.8772 6.80502 16.8513 6.76227 16.8336C6.71952 16.8159 6.67371 16.8068 6.62744 16.8068ZM9.15005 16.8068C9.05661 16.8068 8.967 16.8439 8.90093 16.91C8.83486 16.9761 8.79774 17.0657 8.79774 17.1591V19.1959C8.79774 19.2893 8.83486 19.3789 8.90093 19.445C8.967 19.5111 9.05661 19.5482 9.15005 19.5482C9.24349 19.5482 9.3331 19.5111 9.39918 19.445C9.46525 19.3789 9.50237 19.2893 9.50237 19.1959V17.1591C9.50237 17.0657 9.46525 16.9761 9.39918 16.91C9.3331 16.8439 9.24349 16.8068 9.15005 16.8068ZM12.0992 16.8068C12.0058 16.8068 11.9161 16.8439 11.8501 16.91C11.784 16.9761 11.7469 17.0657 11.7469 17.1591V19.1959C11.7469 19.2893 11.784 19.3789 11.8501 19.445C11.9161 19.5111 12.0058 19.5482 12.0992 19.5482C12.1926 19.5482 12.2822 19.5111 12.3483 19.445C12.4144 19.3789 12.4515 19.2893 12.4515 19.1959V17.1591C12.4515 17.0657 12.4144 16.9761 12.3483 16.91C12.2822 16.8439 12.1926 16.8068 12.0992 16.8068ZM18.7138 18.9087C17.7496 18.2234 17.7256 17.2044 17.7251 17.1575C17.7247 17.0644 17.6874 16.9752 17.6214 16.9094C17.5553 16.8437 17.466 16.8068 17.3728 16.8068C17.2794 16.8068 17.1898 16.8439 17.1237 16.91C17.0576 16.9761 17.0205 17.0657 17.0205 17.1591C17.0205 17.2167 17.0351 18.58 18.3056 19.4831C18.3433 19.5099 18.3859 19.529 18.431 19.5394C18.4761 19.5497 18.5228 19.5511 18.5685 19.5433C18.6141 19.5356 18.6577 19.519 18.6969 19.4944C18.7361 19.4698 18.7701 19.4377 18.7969 19.4C18.851 19.3238 18.8727 19.2293 18.8571 19.1372C18.8415 19.045 18.79 18.9628 18.7138 18.9087ZM14.8502 16.8068C14.7567 16.8068 14.6671 16.8439 14.601 16.91C14.535 16.9761 14.4978 17.0657 14.4978 17.1591V19.1959C14.4978 19.2893 14.535 19.3789 14.601 19.445C14.6671 19.5111 14.7567 19.5482 14.8502 19.5482C14.9436 19.5482 15.0332 19.5111 15.0993 19.445C15.1653 19.3789 15.2025 19.2893 15.2025 19.1959V17.1591C15.2025 17.0657 15.1653 16.9761 15.0993 16.91C15.0332 16.8439 14.9436 16.8068 14.8502 16.8068Z" fill="#A4A4A4"/>
</g>
<defs>
<clipPath id="clip0_535_6525">
<rect width="24" height="24" fill="white" transform="translate(0 0.268555)"/>
</clipPath>
</defs>
</svg>
