<svg width="27" height="27" viewBox="0 0 27 27" fill="none" xmlns="http://www.w3.org/2000/svg">
<path d="M19.6371 25.6013C18.3655 25.6013 17.0263 25.2975 15.6422 24.7123C14.2918 24.1384 12.9301 23.3507 11.6022 22.3941C10.2856 21.4263 9.01397 20.346 7.80986 19.1644C6.61701 17.9603 5.5367 16.6887 4.58017 15.3833C3.61238 14.0329 2.83591 12.6825 2.2845 11.3772C1.69932 9.98175 1.40674 8.63135 1.40674 7.35973C1.40674 6.48197 1.56428 5.64923 1.86812 4.87275C2.18322 4.07377 2.68961 3.33105 3.37606 2.68961C4.24257 1.83436 5.23286 1.40674 6.29067 1.40674C6.72955 1.40674 7.17968 1.50802 7.56229 1.68807C8.00117 1.89063 8.37253 2.19447 8.64261 2.59959L11.2534 6.27941C11.4897 6.60576 11.6697 6.92085 11.7935 7.23594C11.9398 7.57354 12.0186 7.91114 12.0186 8.23749C12.0186 8.66511 11.8948 9.08148 11.6585 9.47535C11.4897 9.77919 11.2309 10.1055 10.9045 10.4319L10.1393 11.2309C10.1505 11.2646 10.1618 11.2871 10.1731 11.3096C10.3081 11.546 10.5782 11.9511 11.0958 12.5588C11.6472 13.1889 12.1649 13.7629 12.6825 14.2918C13.3465 14.9445 13.8979 15.4621 14.4155 15.8897C15.057 16.4299 15.4734 16.7 15.7209 16.8238L15.6984 16.88L16.5199 16.0698C16.8688 15.7209 17.2064 15.4621 17.5327 15.2933C18.1516 14.9107 18.9394 14.8432 19.7271 15.1695C20.0197 15.2933 20.3348 15.4621 20.6724 15.6984L24.4085 18.3542C24.8248 18.6355 25.1287 18.9956 25.3087 19.4233C25.4775 19.8509 25.5563 20.2448 25.5563 20.6386C25.5563 21.1788 25.4325 21.7189 25.1962 22.2253C24.9599 22.7317 24.6673 23.1706 24.2959 23.5757C23.6545 24.2847 22.9568 24.7911 22.1466 25.1174C21.3701 25.4325 20.5261 25.6013 19.6371 25.6013ZM6.29067 3.09473C5.67174 3.09473 5.09782 3.36481 4.54641 3.90497C4.02876 4.38886 3.66865 4.91777 3.44358 5.49168C3.20727 6.07686 3.09473 6.69579 3.09473 7.35973C3.09473 8.40629 3.3423 9.54287 3.83745 10.7132C4.34385 11.9061 5.05281 13.1439 5.95307 14.3818C6.85333 15.6196 7.87738 16.8238 9.00271 17.9603C10.128 19.0744 11.3434 20.1097 12.5925 21.0212C13.8079 21.9102 15.057 22.6304 16.2948 23.1481C18.2192 23.9696 20.0197 24.1609 21.5051 23.542C22.079 23.3056 22.5854 22.9455 23.0468 22.4279C23.3056 22.1466 23.5082 21.8427 23.677 21.4826C23.812 21.2013 23.8796 20.9087 23.8796 20.6161C23.8796 20.4361 23.8458 20.256 23.7558 20.0534C23.722 19.9859 23.6545 19.8621 23.4407 19.7158L19.7046 17.0601C19.4795 16.9025 19.277 16.79 19.0857 16.7112C18.8381 16.6099 18.7368 16.5087 18.3542 16.745C18.1291 16.8575 17.9266 17.0263 17.7015 17.2514L16.8463 18.0954C16.4074 18.523 15.7322 18.6243 15.2145 18.433L14.9107 18.2979C14.4493 18.0504 13.9091 17.6677 13.3127 17.1613C12.7726 16.7 12.1874 16.1598 11.4784 15.4621C10.927 14.8994 10.3756 14.303 9.8017 13.6391C9.27279 13.0201 8.89018 12.4912 8.65386 12.0524L8.51882 11.7148C8.4513 11.4559 8.42879 11.3096 8.42879 11.1521C8.42879 10.747 8.57509 10.3869 8.85642 10.1055L9.70042 9.22778C9.92548 9.00271 10.0943 8.7889 10.2068 8.59759C10.2968 8.4513 10.3306 8.32751 10.3306 8.21498C10.3306 8.12495 10.2968 7.98992 10.2406 7.85488C10.1618 7.67482 10.038 7.47226 9.88047 7.25845L7.2697 3.56737C7.15717 3.40982 7.02213 3.29729 6.85333 3.21852C6.67328 3.13975 6.48197 3.09473 6.29067 3.09473ZM15.6984 16.8913L15.5184 17.6565L15.8222 16.8688C15.7659 16.8575 15.7209 16.8688 15.6984 16.8913Z" fill="white"/>
</svg>
