<svg width="24" height="25" viewBox="0 0 24 25" fill="none" xmlns="http://www.w3.org/2000/svg">
<g clip-path="url(#clip0_535_6748)">
<mask id="mask0_535_6748" style="mask-type:luminance" maskUnits="userSpaceOnUse" x="0" y="0" width="24" height="25">
<path d="M0 0.268627H23.9999V24.2686H0V0.268627Z" fill="white"/>
</mask>
<g mask="url(#mask0_535_6748)">
<path d="M17.0443 7.25964C17.2241 6.71925 17.3156 6.15339 17.3152 5.58386C17.3152 5.57125 17.3148 5.55874 17.3147 5.54618L23.2968 8.43488V10.2788L17.0443 7.25964ZM12 10.1959C9.45686 10.1959 7.38785 8.12691 7.38785 5.58386C7.38785 3.04071 9.45686 0.97175 12 0.97175C14.5431 0.97175 16.612 3.04071 16.612 5.58386C16.612 8.12691 14.5431 10.1959 12 10.1959ZM23.2968 23.5654H0.703123V22.8623H23.2968V23.5654ZM10.0193 16.9062V14.64H13.9806V16.9062C13.9806 17.9983 13.0921 18.8869 12 18.8869C10.9078 18.8869 10.0193 17.9983 10.0193 16.9062ZM21.539 18.4739C21.6322 18.4739 21.7217 18.4368 21.7876 18.3709C21.8535 18.305 21.8906 18.2156 21.8906 18.1223V10.3806L23.1596 10.9934C23.2489 11.0367 23.3477 11.0566 23.4467 11.051C23.5457 11.0455 23.6417 11.0148 23.7256 10.9618C23.8098 10.9092 23.8792 10.836 23.9272 10.7492C23.9752 10.6623 24.0002 10.5646 23.9999 10.4653V8.3611C23.9999 8.13718 23.8695 7.92999 23.6686 7.83357L17.2467 4.73247C16.838 2.20498 14.641 0.268627 12 0.268627C9.06911 0.268627 6.68473 2.65301 6.68473 5.58386C6.68473 6.16914 6.78007 6.73253 6.95562 7.25964L0.703123 10.2788V8.43488L5.71714 6.01361C5.79977 5.97227 5.86281 5.90006 5.89262 5.8126C5.92243 5.72515 5.91661 5.62947 5.87643 5.54627C5.83625 5.46306 5.76494 5.39902 5.67791 5.36798C5.59088 5.33695 5.49513 5.34142 5.41137 5.38042L0.332155 7.8332C0.130359 7.92999 0 8.13723 0 8.3611V10.4653C0 10.6683 0.102515 10.8539 0.274311 10.9618C0.358198 11.0148 0.454233 11.0455 0.553317 11.051C0.652402 11.0566 0.751256 11.0367 0.840513 10.9933L2.10937 10.3806V22.1592H0.632811C0.283827 22.1592 0 22.4431 0 22.792V23.6357C0 23.9847 0.283827 24.2686 0.632811 24.2686H23.3671C23.7161 24.2686 23.9999 23.9847 23.9999 23.6357V22.792C23.9999 22.4431 23.7161 22.1592 23.3671 22.1592H21.8906V19.5286C21.8906 19.4353 21.8535 19.3459 21.7876 19.28C21.7217 19.214 21.6322 19.177 21.539 19.177C21.4458 19.177 21.3563 19.214 21.2904 19.28C21.2245 19.3459 21.1874 19.4353 21.1874 19.5286V22.1592H12.3515V19.5663C13.6658 19.3934 14.6837 18.2668 14.6837 16.9062V14.6057C14.6837 14.2369 14.3837 13.9369 14.0149 13.9369H13.4062V12.7191C13.4062 12.6259 13.3692 12.5364 13.3032 12.4705C13.2373 12.4046 13.1479 12.3675 13.0546 12.3675C12.9614 12.3675 12.872 12.4046 12.8061 12.4705C12.7401 12.5364 12.7031 12.6259 12.7031 12.7191V13.9369H11.2968V12.7191C11.2968 12.6259 11.2598 12.5364 11.1939 12.4705C11.1279 12.4046 11.0385 12.3675 10.9453 12.3675C10.852 12.3675 10.7626 12.4046 10.6967 12.4705C10.6308 12.5364 10.5937 12.6259 10.5937 12.7191V13.9369H9.985C9.61619 13.9369 9.31619 14.2369 9.31619 14.6057V16.9062C9.31619 18.2668 10.3342 19.3934 11.6484 19.5663V22.1592H2.81249V10.0411L7.22238 7.91167C8.08694 9.67894 9.90353 10.899 12 10.899C14.0963 10.899 15.9129 9.67894 16.7775 7.91167L21.1874 10.0411V18.1223C21.1874 18.2156 21.2245 18.305 21.2904 18.3709C21.3563 18.4368 21.4458 18.4739 21.539 18.4739ZM13.8705 5.95544C12.9081 6.86842 11.1538 8.55784 11.0611 8.60331C11.0543 8.60063 11.0374 8.59445 11.0416 8.58334C11.2849 7.94795 11.5869 7.261 11.8348 6.6737C11.9045 6.50866 11.8769 6.28576 11.6581 6.15981C11.1499 5.86741 10.6363 5.58119 10.1315 5.27641C10.094 5.25377 10.0957 5.24313 10.1292 5.21139C10.7324 4.6398 12.7262 2.70382 12.9324 2.56484C12.9511 2.56882 12.9579 2.5789 12.958 2.58289C12.7095 3.22367 12.4322 3.86318 12.1658 4.49247C12.0817 4.69122 12.1521 4.89808 12.3411 5.00716C12.8463 5.29886 13.3504 5.59277 13.8563 5.88339C13.9079 5.91297 13.9096 5.91831 13.8705 5.95544ZM14.2068 5.27383C13.7757 5.02591 13.3456 4.77593 12.9151 4.52679C13.1499 3.97516 13.3929 3.40643 13.6136 2.83681C13.6554 2.7292 13.6702 2.613 13.6566 2.49837C13.6431 2.38373 13.6017 2.27416 13.536 2.17925C13.2652 1.78742 12.7452 1.7645 12.3949 2.09768C11.4732 2.97462 10.5629 3.83182 9.64553 4.70102C9.46858 4.86869 9.3813 5.09641 9.4061 5.32572C9.43066 5.55288 9.56266 5.7543 9.76816 5.87838C10.2062 6.1428 10.6476 6.39189 11.0852 6.64197C10.8674 7.15572 10.5991 7.77854 10.3859 8.3296C10.2505 8.67938 10.4056 9.06755 10.7465 9.2326C11.0142 9.36226 11.3229 9.33713 11.6042 9.06933C12.5005 8.2164 13.4545 7.31931 14.3544 6.46558C14.5335 6.29575 14.6204 6.06653 14.5929 5.83666C14.5652 5.60416 14.4245 5.39903 14.2068 5.27383Z" fill="#A4A4A4"/>
</g>
</g>
<defs>
<clipPath id="clip0_535_6748">
<rect width="24" height="24" fill="white" transform="translate(0 0.268555)"/>
</clipPath>
</defs>
</svg>
