<svg width="502" height="101" viewBox="0 0 502 101" fill="none" xmlns="http://www.w3.org/2000/svg">
<g opacity="0.1">
<mask id="path-1-outside-1_805_19203" maskUnits="userSpaceOnUse" x="-1" y="-1" width="504" height="104" fill="black">
<rect fill="white" x="-1" y="-1" width="504" height="104"/>
<path d="M68.7355 77.6184H71.7577C69.3718 86.3666 68.4174 93.2061 67.304 101H0.976471V97.9779C9.08847 97.0235 12.1106 95.7511 12.1106 87.9572V15.2673C12.1106 7.47341 9.08847 6.20094 0.976471 5.24658V2.22446H64.7591C66.8268 2.22446 67.1449 2.70164 67.4631 5.08752L69.0536 20.9934H66.3496C61.5779 9.85929 57.2833 6.04188 45.5129 6.04188H32.6292C26.5849 6.04188 23.8809 7.47341 23.8809 15.2673V49.9421H45.1948C54.4202 49.9421 56.1699 45.3294 58.0786 39.2852H60.7826C59.9873 47.5562 59.9873 55.9863 60.7826 64.2574H58.0786C56.1699 58.2132 54.4202 53.6005 45.1948 53.6005H23.8809V87.6391C23.8809 95.4329 27.0621 97.1826 31.3567 97.1826H38.5144C56.0108 97.1826 60.6235 94.4786 68.7355 77.6184ZM105.038 2.22446H141.781C152.438 2.22446 155.46 1.58824 159.277 0.633876L153.074 22.2659H150.211C151.642 11.4499 151.483 6.36 144.008 6.36H126.988V88.2753C126.988 95.9101 130.329 97.0235 141.145 97.9779V101C127.625 100.523 114.582 100.523 101.062 101V97.9779C111.719 97.0235 115.218 95.9101 115.218 88.2753V6.36H102.175C93.586 6.36 91.8363 8.90493 85.1559 22.2659H82.1338L88.337 0.633876C92.1545 1.58824 95.4947 2.22446 105.038 2.22446ZM168.765 101V97.9779C177.99 96.8645 181.012 95.7511 181.012 88.9115V14.472C181.012 8.90493 177.195 6.20094 169.878 5.24658V2.22446C177.195 2.70164 184.83 2.70164 193.101 2.22446L223.958 82.7082L255.452 2.22446C262.291 2.70164 270.563 2.70164 276.448 2.22446V5.24658C269.608 6.20094 266.586 8.90493 266.586 14.472V88.9115C266.586 96.0692 269.608 97.0235 277.084 97.9779V101C266.904 100.523 254.657 100.523 243.841 101V97.9779C251.953 97.0235 254.975 96.0692 254.975 88.9115V14.1539L220.936 101H219.505L185.307 14.1539V88.9115C185.307 95.7511 188.488 96.8645 198.509 97.9779V101C188.011 100.523 177.831 100.523 168.765 101ZM338.153 1.42917L369.964 88.5934C372.032 94.3195 372.668 96.8645 383.484 97.9779V101C372.827 100.682 360.58 100.682 349.923 101V97.9779C362.17 96.7054 359.148 94.1605 356.126 85.5713L350.082 68.8701H312.703L306.341 87.48C303.796 94.7967 308.409 96.7054 316.68 97.9779V101C308.09 100.682 295.207 100.682 286.618 101V97.9779C296.002 96.8645 299.342 94.3195 302.364 85.5713L331.313 1.42917H338.153ZM330.677 15.4263L313.976 65.0527H348.65L330.677 15.4263ZM392.976 101V97.9779C402.201 96.8645 405.223 95.7511 405.223 88.9115V14.472C405.223 8.90493 401.406 6.20094 394.089 5.24658V2.22446C401.406 2.70164 409.041 2.70164 417.312 2.22446L448.169 82.7082L479.663 2.22446C486.502 2.70164 494.773 2.70164 500.659 2.22446V5.24658C493.819 6.20094 490.797 8.90493 490.797 14.472V88.9115C490.797 96.0692 493.819 97.0235 501.295 97.9779V101C491.115 100.523 478.867 100.523 468.051 101V97.9779C476.163 97.0235 479.186 96.0692 479.186 88.9115V14.1539L445.147 101H443.715L409.518 14.1539V88.9115C409.518 95.7511 412.699 96.8645 422.72 97.9779V101C412.222 100.523 402.042 100.523 392.976 101Z"/>
</mask>
<path d="M68.7355 77.6183V76.6183H68.1069L67.8344 77.1848L68.7355 77.6183ZM71.7577 77.6183L72.7224 77.8815L73.0669 76.6183H71.7577V77.6183ZM67.304 101V102H68.1713L68.294 101.141L67.304 101ZM0.976471 101H-0.0235293V102H0.976471V101ZM0.976471 97.9779L0.859629 96.9847L-0.0235293 97.0886V97.9779H0.976471ZM0.976471 5.24658H-0.0235293V6.13583L0.859629 6.23973L0.976471 5.24658ZM0.976471 2.22446V1.22446H-0.0235293V2.22446H0.976471ZM67.4631 5.08752L68.4581 4.98802L68.4565 4.97166L68.4543 4.95536L67.4631 5.08752ZM69.0536 20.9934V21.9934H70.1586L70.0487 20.8939L69.0536 20.9934ZM66.3496 20.9934L65.4305 21.3873L65.6903 21.9934H66.3496V20.9934ZM23.8809 49.9421H22.8809V50.9421H23.8809V49.9421ZM58.0786 39.2852V38.2852H57.3457L57.125 38.984L58.0786 39.2852ZM60.7826 39.2852L61.778 39.3809L61.8834 38.2852H60.7826V39.2852ZM60.7826 64.2574V65.2574H61.8834L61.778 64.1617L60.7826 64.2574ZM58.0786 64.2574L57.125 64.5585L57.3457 65.2574H58.0786V64.2574ZM23.8809 53.6005V52.6005H22.8809V53.6005H23.8809ZM68.7355 78.6183H71.7577V76.6183H68.7355V78.6183ZM70.7929 77.3552C68.3887 86.1707 67.4271 93.0671 66.3141 100.859L68.294 101.141C69.4077 93.3451 70.3549 86.5625 72.7224 77.8815L70.7929 77.3552ZM67.304 100H0.976471V102H67.304V100ZM1.97647 101V97.9779H-0.0235293V101H1.97647ZM1.09331 98.971C5.10023 98.4996 8.18095 97.9321 10.2092 96.3141C12.3437 94.6113 13.1106 91.9463 13.1106 87.9572H11.1106C11.1106 91.762 10.3664 93.6302 8.96191 94.7506C7.45105 95.9559 4.96471 96.5018 0.859629 96.9847L1.09331 98.971ZM13.1106 87.9572V15.2673H11.1106V87.9572H13.1106ZM13.1106 15.2673C13.1106 11.2782 12.3437 8.61321 10.2092 6.91039C8.18095 5.29239 5.10023 4.72484 1.09331 4.25343L0.859629 6.23973C4.96471 6.72269 7.45105 7.26855 8.96191 8.47384C10.3664 9.59431 11.1106 11.4625 11.1106 15.2673H13.1106ZM1.97647 5.24658V2.22446H-0.0235293V5.24658H1.97647ZM0.976471 3.22446H64.7591V1.22446H0.976471V3.22446ZM64.7591 3.22446C65.8064 3.22446 65.9718 3.37267 66.0256 3.4322C66.0694 3.48058 66.1486 3.59886 66.2344 3.90419C66.3208 4.21152 66.393 4.62875 66.4718 5.21969L68.4543 4.95536C68.374 4.35335 68.2872 3.81623 68.1598 3.36306C68.0319 2.90789 67.8427 2.45952 67.5087 2.09038C66.807 1.31485 65.7795 1.22446 64.7591 1.22446V3.22446ZM66.468 5.18703L68.0586 21.0929L70.0487 20.8939L68.4581 4.98802L66.468 5.18703ZM69.0536 19.9934H66.3496V21.9934H69.0536V19.9934ZM67.2688 20.5995C64.8694 15.0008 62.5178 11.0532 59.1541 8.54114C55.764 6.00924 51.4944 5.04189 45.5129 5.04189V7.04189C51.3019 7.04189 55.0647 7.98323 57.9574 10.1436C60.8766 12.3237 63.0582 15.8519 65.4305 21.3873L67.2688 20.5995ZM45.5129 5.04189H32.6292V7.04189H45.5129V5.04189ZM32.6292 5.04189C29.603 5.04189 27.0485 5.37944 25.3072 6.99982C23.5513 8.63377 22.8809 11.3189 22.8809 15.2673H24.8809C24.8809 11.4218 25.5625 9.49422 26.6697 8.46395C27.7915 7.42009 29.6111 7.04189 32.6292 7.04189V5.04189ZM22.8809 15.2673V49.9421H24.8809V15.2673H22.8809ZM23.8809 50.9421H45.1948V48.9421H23.8809V50.9421ZM45.1948 50.9421C49.981 50.9421 53.0256 49.7393 55.1025 47.5721C57.1184 45.4685 58.0891 42.5728 59.0322 39.5863L57.125 38.984C56.1594 42.0418 55.3009 44.4745 53.6585 46.1883C52.077 47.8386 49.6341 48.9421 45.1948 48.9421V50.9421ZM58.0786 40.2852H60.7826V38.2852H58.0786V40.2852ZM59.7872 39.1895C58.9858 47.5242 58.9858 56.0184 59.7872 64.3531L61.778 64.1617C60.9888 55.9543 60.9888 47.5883 61.778 39.3809L59.7872 39.1895ZM60.7826 63.2574H58.0786V65.2574H60.7826V63.2574ZM59.0322 63.9563C58.0891 60.9698 57.1184 58.0741 55.1025 55.9704C53.0256 53.8033 49.981 52.6005 45.1948 52.6005V54.6005C49.6341 54.6005 52.077 55.704 53.6585 57.3543C55.3009 59.068 56.1594 61.5008 57.125 64.5585L59.0322 63.9563ZM45.1948 52.6005H23.8809V54.6005H45.1948V52.6005ZM22.8809 53.6005V87.6391H24.8809V53.6005H22.8809ZM22.8809 87.6391C22.8809 91.637 23.6908 94.3347 25.2811 96.0199C26.8903 97.7252 29.0966 98.1826 31.3567 98.1826V96.1826C29.3222 96.1826 27.7906 95.7651 26.7357 94.6472C25.6617 93.5091 24.8809 91.435 24.8809 87.6391H22.8809ZM31.3567 98.1826H38.5144V96.1826H31.3567V98.1826ZM38.5144 98.1826C47.263 98.1826 53.0599 97.5208 57.6827 94.5656C62.2983 91.615 65.5806 86.4821 69.6367 78.0519L67.8344 77.1848C63.7784 85.6149 60.6984 90.264 56.6055 92.8805C52.5198 95.4923 47.2622 96.1826 38.5144 96.1826V98.1826ZM159.277 0.633873L160.239 0.909531L160.716 -0.756668L159.035 -0.336266L159.277 0.633873ZM153.074 22.2659V23.2659H153.828L154.035 22.5415L153.074 22.2659ZM150.211 22.2659L149.22 22.1347L149.07 23.2659H150.211V22.2659ZM126.988 6.35999V5.35999H125.988V6.35999H126.988ZM141.145 97.9779H142.145V97.0622L141.232 96.9818L141.145 97.9779ZM141.145 101L141.109 101.999L142.145 102.036V101H141.145ZM101.062 101H100.062V102.036L101.097 101.999L101.062 101ZM101.062 97.9779L100.973 96.9819L100.062 97.0634V97.9779H101.062ZM115.218 6.35999H116.218V5.35999H115.218V6.35999ZM85.1559 22.2659V23.2659H85.7739L86.0503 22.7131L85.1559 22.2659ZM82.1338 22.2659L81.1725 21.9902L80.8067 23.2659H82.1338V22.2659ZM88.3371 0.633873L88.5796 -0.336266L87.6422 -0.570625L87.3758 0.358223L88.3371 0.633873ZM105.038 3.22446H141.781V1.22446H105.038V3.22446ZM141.781 3.22446C152.499 3.22446 155.605 2.58262 159.52 1.60402L159.035 -0.336266C155.314 0.593849 152.376 1.22446 141.781 1.22446V3.22446ZM158.316 0.358223L152.113 21.9902L154.035 22.5415L160.239 0.909531L158.316 0.358223ZM153.074 21.2659H150.211V23.2659H153.074V21.2659ZM151.202 22.3971C151.561 19.6875 151.825 17.3015 151.896 15.2524C151.967 13.212 151.851 11.4339 151.407 9.96693C150.953 8.47115 150.149 7.2731 148.858 6.47402C147.596 5.69245 145.975 5.35999 144.008 5.35999V7.35999C145.778 7.35999 146.981 7.66378 147.806 8.17455C148.603 8.66783 149.15 9.41826 149.492 10.5469C149.843 11.7044 149.966 13.2268 149.897 15.1828C149.83 17.13 149.577 19.4362 149.22 22.1347L151.202 22.3971ZM144.008 5.35999H126.988V7.35999H144.008V5.35999ZM125.988 6.35999V88.2753H127.988V6.35999H125.988ZM125.988 88.2753C125.988 90.2431 126.201 91.89 126.752 93.2528C127.316 94.6468 128.214 95.6967 129.485 96.4824C130.727 97.2502 132.294 97.7467 134.178 98.1144C136.067 98.483 138.349 98.7351 141.057 98.974L141.232 96.9818C138.532 96.7435 136.34 96.4985 134.561 96.1514C132.777 95.8033 131.481 95.3653 130.536 94.7812C129.62 94.2149 129.007 93.4952 128.606 92.5033C128.193 91.4802 127.988 90.1249 127.988 88.2753H125.988ZM140.145 97.9779V101H142.145V97.9779H140.145ZM141.18 100.001C127.636 99.5226 114.57 99.5226 101.026 100.001L101.097 101.999C114.594 101.523 127.613 101.523 141.109 101.999L141.18 100.001ZM102.062 101V97.9779H100.062V101H102.062ZM101.151 98.9739C103.819 98.735 106.08 98.4828 107.962 98.1142C109.839 97.7465 111.409 97.2503 112.659 96.4845C113.936 95.7017 114.851 94.6551 115.428 93.261C115.994 91.8966 116.218 90.2474 116.218 88.2753H114.218C114.218 90.1206 114.004 91.4736 113.581 92.4951C113.17 93.4869 112.543 94.2098 111.614 94.7791C110.657 95.3652 109.354 95.8035 107.577 96.1515C105.805 96.4987 103.633 96.7436 100.973 96.9819L101.151 98.9739ZM116.218 88.2753V6.35999H114.218V88.2753H116.218ZM115.218 5.35999H102.175V7.35999H115.218V5.35999ZM102.175 5.35999C97.7694 5.35999 94.8674 6.01521 92.2487 8.58945C89.7566 11.0393 87.5727 15.1961 84.2614 21.8187L86.0503 22.7131C89.4195 15.9747 91.4506 12.1786 93.6508 10.0157C95.7244 7.97726 97.9917 7.35999 102.175 7.35999V5.35999ZM85.1559 21.2659H82.1338V23.2659H85.1559V21.2659ZM83.095 22.5415L89.2983 0.909531L87.3758 0.358223L81.1725 21.9902L83.095 22.5415ZM88.0945 1.60402C92.0059 2.58188 95.4296 3.22446 105.038 3.22446V1.22446C95.5598 1.22446 92.303 0.594597 88.5796 -0.336266L88.0945 1.60402ZM168.765 101H167.765V102.054L168.817 101.999L168.765 101ZM168.765 97.9779L168.645 96.9851L167.765 97.0913V97.9779H168.765ZM169.878 5.24658H168.878V6.12462L169.749 6.23818L169.878 5.24658ZM169.878 2.22446L169.943 1.22659L168.878 1.15712V2.22446H169.878ZM193.101 2.22446L194.035 1.86647L193.773 1.18403L193.043 1.22612L193.101 2.22446ZM223.958 82.7082L223.025 83.0662L223.949 85.4768L224.89 83.0726L223.958 82.7082ZM255.452 2.22446L255.522 1.22689L254.788 1.17574L254.521 1.86006L255.452 2.22446ZM276.448 2.22446H277.448V1.1401L276.367 1.22774L276.448 2.22446ZM276.448 5.24658L276.586 6.23698L277.448 6.11673V5.24658H276.448ZM277.084 97.9779H278.084V97.0974L277.211 96.9859L277.084 97.9779ZM277.084 101L277.037 101.999L278.084 102.048V101H277.084ZM243.841 101H242.841V102.045L243.885 101.999L243.841 101ZM243.841 97.9779L243.724 96.9847L242.841 97.0886V97.9779H243.841ZM254.975 14.1539H255.975L254.044 13.789L254.975 14.1539ZM220.936 101V102H221.618L221.867 101.365L220.936 101ZM219.505 101L218.574 101.366L218.824 102H219.505V101ZM185.307 14.1539L186.237 13.7875L184.307 14.1539H185.307ZM198.509 97.9779H199.509V97.0828L198.619 96.984L198.509 97.9779ZM198.509 101L198.463 101.999L199.509 102.046V101H198.509ZM169.765 101V97.9779H167.765V101H169.765ZM168.885 98.9707C171.196 98.6918 173.16 98.4083 174.797 98.0273C176.431 97.6472 177.806 97.1555 178.903 96.4241C181.219 94.8798 182.012 92.4723 182.012 88.9115H180.012C180.012 92.1903 179.295 93.7593 177.793 94.7599C176.982 95.3009 175.871 95.7239 174.344 96.0794C172.82 96.4341 170.947 96.7073 168.645 96.9851L168.885 98.9707ZM182.012 88.9115V14.472H180.012V88.9115H182.012ZM182.012 14.472C182.012 11.4245 180.949 9.05256 178.813 7.34785C176.734 5.68899 173.736 4.74126 170.008 4.25498L169.749 6.23818C173.338 6.70627 175.907 7.58771 177.565 8.9112C179.167 10.1888 180.012 11.9524 180.012 14.472H182.012ZM170.878 5.24658V2.22446H168.878V5.24658H170.878ZM169.813 3.22234C177.176 3.7025 184.852 3.70204 193.158 3.2228L193.043 1.22612C184.808 1.70124 177.214 1.70078 169.943 1.22659L169.813 3.22234ZM192.167 2.58245L223.025 83.0662L224.892 82.3503L194.035 1.86647L192.167 2.58245ZM224.89 83.0726L256.383 2.58886L254.521 1.86006L223.027 82.3438L224.89 83.0726ZM255.382 3.22204C262.264 3.70217 270.586 3.70302 276.529 3.22119L276.367 1.22774C270.539 1.70027 262.319 1.70112 255.522 1.22689L255.382 3.22204ZM275.448 2.22446V5.24658H277.448V2.22446H275.448ZM276.31 4.25617C272.81 4.74454 270.103 5.70056 268.273 7.39576C266.401 9.12843 265.586 11.4974 265.586 14.472H267.586C267.586 11.8795 268.282 10.113 269.632 8.86328C271.022 7.57613 273.246 6.70298 276.586 6.23698L276.31 4.25617ZM265.586 14.472V88.9115H267.586V14.472H265.586ZM265.586 88.9115C265.586 92.6057 266.365 95.0389 268.436 96.5743C269.429 97.3099 270.648 97.7835 272.046 98.135C273.444 98.4864 275.086 98.7309 276.957 98.9698L277.211 96.9859C275.344 96.7476 273.805 96.515 272.534 96.1954C271.263 95.8758 270.325 95.4846 269.627 94.9675C268.319 93.9978 267.586 92.375 267.586 88.9115H265.586ZM276.084 97.9779V101H278.084V97.9779H276.084ZM277.131 100.001C266.919 99.5224 254.641 99.5225 243.797 100.001L243.885 101.999C254.672 101.523 266.889 101.523 277.037 101.999L277.131 100.001ZM244.841 101V97.9779H242.841V101H244.841ZM243.958 98.971C245.988 98.7322 247.747 98.4883 249.232 98.1385C250.716 97.789 251.994 97.3187 253.027 96.5871C255.195 95.0528 255.975 92.6072 255.975 88.9115H253.975C253.975 92.3735 253.243 93.9839 251.872 94.9547C251.136 95.4758 250.138 95.8703 248.773 96.1918C247.41 96.5131 245.75 96.7464 243.724 96.9847L243.958 98.971ZM255.975 88.9115V14.1539H253.975V88.9115H255.975ZM254.044 13.789L220.005 100.635L221.867 101.365L255.906 14.5188L254.044 13.789ZM220.936 100H219.505V102H220.936V100ZM220.435 100.634L186.237 13.7875L184.377 14.5203L218.574 101.366L220.435 100.634ZM184.307 14.1539V88.9115H186.307V14.1539H184.307ZM184.307 88.9115C184.307 90.6865 184.511 92.1879 185.039 93.444C185.578 94.7284 186.431 95.7012 187.622 96.4414C188.787 97.1652 190.252 97.6527 192.008 98.0309C193.768 98.4102 195.889 98.6929 198.398 98.9718L198.619 96.984C196.118 96.7061 194.084 96.4322 192.429 96.0758C190.77 95.7184 189.561 95.2913 188.678 94.7426C187.821 94.2103 187.253 93.5528 186.883 92.67C186.5 91.7589 186.307 90.5563 186.307 88.9115H184.307ZM197.509 97.9779V101H199.509V97.9779H197.509ZM198.554 100.001C188.029 99.5226 177.816 99.5222 168.712 100.001L168.817 101.999C177.847 101.523 187.993 101.523 198.463 101.999L198.554 100.001ZM338.153 1.42917L339.092 1.08633L338.852 0.429169H338.153V1.42917ZM369.964 88.5934L370.905 88.2538L370.904 88.2506L369.964 88.5934ZM383.484 97.9779H384.484V97.0755L383.587 96.9831L383.484 97.9779ZM383.484 101L383.455 102L384.484 102.03V101H383.484ZM349.923 101H348.923V102.03L349.953 102L349.923 101ZM349.923 97.9779L349.82 96.9832L348.923 97.0764V97.9779H349.923ZM356.126 85.5713L357.07 85.2394L357.067 85.231L356.126 85.5713ZM350.082 68.8701L351.022 68.5298L350.784 67.8701H350.082V68.8701ZM312.703 68.8701V67.8701H311.988L311.757 68.5466L312.703 68.8701ZM306.341 87.48L307.285 87.8085L307.287 87.8035L306.341 87.48ZM316.68 97.9779H317.68V97.12L316.832 96.9895L316.68 97.9779ZM316.68 101L316.643 101.999L317.68 102.038V101H316.68ZM286.618 101H285.618V102.038L286.655 101.999L286.618 101ZM286.618 97.9779L286.5 96.9848L285.618 97.0895V97.9779H286.618ZM302.364 85.5713L303.31 85.8978L303.31 85.8966L302.364 85.5713ZM331.313 1.42917V0.429169H330.6L330.367 1.10384L331.313 1.42917ZM330.677 15.4263L331.617 15.0858L330.642 12.3941L329.729 15.1074L330.677 15.4263ZM313.976 65.0527L313.028 64.7337L312.584 66.0527H313.976V65.0527ZM348.65 65.0527V66.0527H350.076L349.591 64.7122L348.65 65.0527ZM337.213 1.77201L369.025 88.9362L370.904 88.2506L339.092 1.08633L337.213 1.77201ZM369.024 88.9331C370.025 91.7062 370.78 94.0788 372.799 95.7801C374.818 97.4814 377.953 98.4138 383.382 98.9726L383.587 96.9831C378.2 96.4286 375.608 95.5318 374.088 94.2507C372.568 92.9697 371.971 91.2068 370.905 88.2538L369.024 88.9331ZM382.484 97.9779V101H384.484V97.9779H382.484ZM383.514 100C372.837 99.6817 360.57 99.6817 349.893 100L349.953 102C360.59 101.682 372.817 101.682 383.455 102L383.514 100ZM350.923 101V97.9779H348.923V101H350.923ZM350.026 98.9725C353.099 98.6533 355.324 98.2459 356.853 97.64C358.416 97.0202 359.434 96.112 359.729 94.7265C359.993 93.4857 359.61 92.0751 359.097 90.6219C358.832 89.8697 358.507 89.042 358.162 88.1556C357.814 87.2628 357.442 86.2965 357.07 85.2394L355.183 85.9032C355.566 86.9934 355.949 87.9855 356.298 88.8809C356.649 89.7826 356.959 90.5728 357.211 91.2869C357.733 92.7664 357.906 93.682 357.773 94.3102C357.67 94.7937 357.336 95.297 356.116 95.7808C354.861 96.2783 352.871 96.6662 349.82 96.9832L350.026 98.9725ZM357.067 85.231L351.022 68.5298L349.142 69.2104L355.186 85.9116L357.067 85.231ZM350.082 67.8701H312.703V69.8701H350.082V67.8701ZM311.757 68.5466L305.395 87.1565L307.287 87.8035L313.649 69.1936L311.757 68.5466ZM305.396 87.1515C304.729 89.0701 304.492 90.7398 304.733 92.1918C304.979 93.6759 305.712 94.849 306.816 95.7651C307.895 96.6606 309.309 97.2957 310.927 97.7866C312.55 98.2793 314.444 98.6456 316.528 98.9662L316.832 96.9895C314.78 96.6739 312.996 96.3245 311.507 95.8728C310.013 95.4192 308.883 94.8813 308.093 94.226C307.328 93.5913 306.867 92.8358 306.706 91.8643C306.539 90.8609 306.68 89.5483 307.285 87.8085L305.396 87.1515ZM315.68 97.9779V101H317.68V97.9779H315.68ZM316.717 100.001C308.103 99.6817 295.194 99.6817 286.581 100.001L286.655 101.999C295.219 101.682 308.078 101.682 316.643 101.999L316.717 100.001ZM287.618 101V97.9779H285.618V101H287.618ZM286.735 98.9709C291.476 98.4085 294.885 97.4682 297.493 95.4249C300.109 93.3764 301.778 90.3305 303.31 85.8978L301.419 85.2448C299.928 89.5603 298.417 92.161 296.26 93.8504C294.097 95.545 291.144 96.4338 286.5 96.9848L286.735 98.9709ZM303.31 85.8966L332.259 1.7545L330.367 1.10384L301.419 85.246L303.31 85.8966ZM331.313 2.42917H338.153V0.429169H331.313V2.42917ZM329.729 15.1074L313.028 64.7337L314.923 65.3717L331.625 15.7453L329.729 15.1074ZM313.976 66.0527H348.65V64.0527H313.976V66.0527ZM349.591 64.7122L331.617 15.0858L329.737 15.7669L347.71 65.3932L349.591 64.7122ZM392.976 101H391.976V102.054L393.028 101.999L392.976 101ZM392.976 97.9779L392.856 96.9851L391.976 97.0913V97.9779H392.976ZM394.089 5.24658H393.089V6.12462L393.96 6.23818L394.089 5.24658ZM394.089 2.22446L394.154 1.22659L393.089 1.15712V2.22446H394.089ZM417.312 2.22446L418.245 1.86647L417.984 1.18403L417.254 1.22612L417.312 2.22446ZM448.169 82.7082L447.235 83.0662L448.16 85.4768L449.1 83.0726L448.169 82.7082ZM479.663 2.22446L479.732 1.22689L478.999 1.17574L478.732 1.86006L479.663 2.22446ZM500.659 2.22446H501.659V1.1401L500.578 1.22774L500.659 2.22446ZM500.659 5.24658L500.797 6.23698L501.659 6.11673V5.24658H500.659ZM501.295 97.9779H502.295V97.0974L501.421 96.9859L501.295 97.9779ZM501.295 101L501.248 101.999L502.295 102.048V101H501.295ZM468.051 101H467.051V102.045L468.096 101.999L468.051 101ZM468.051 97.9779L467.935 96.9847L467.051 97.0886V97.9779H468.051ZM479.186 14.1539H480.186L478.255 13.789L479.186 14.1539ZM445.147 101V102H445.829L446.078 101.365L445.147 101ZM443.715 101L442.785 101.366L443.035 102H443.715V101ZM409.518 14.1539L410.448 13.7875L408.518 14.1539H409.518ZM422.72 97.9779H423.72V97.0828L422.83 96.984L422.72 97.9779ZM422.72 101L422.674 101.999L423.72 102.046V101H422.72ZM393.976 101V97.9779H391.976V101H393.976ZM393.096 98.9707C395.407 98.6918 397.371 98.4083 399.008 98.0273C400.642 97.6472 402.016 97.1555 403.114 96.4241C405.43 94.8798 406.223 92.4723 406.223 88.9115H404.223C404.223 92.1903 403.505 93.7593 402.004 94.7599C401.193 95.3009 400.082 95.7239 398.555 96.0794C397.03 96.4341 395.158 96.7073 392.856 96.9851L393.096 98.9707ZM406.223 88.9115V14.472H404.223V88.9115H406.223ZM406.223 14.472C406.223 11.4245 405.16 9.05256 403.024 7.34785C400.945 5.68899 397.947 4.74126 394.218 4.25498L393.96 6.23818C397.548 6.70627 400.117 7.58771 401.776 8.9112C403.378 10.1888 404.223 11.9524 404.223 14.472H406.223ZM395.089 5.24658V2.22446H393.089V5.24658H395.089ZM394.024 3.22234C401.386 3.7025 409.063 3.70204 417.369 3.2228L417.254 1.22612C409.019 1.70124 401.425 1.70078 394.154 1.22659L394.024 3.22234ZM416.378 2.58245L447.235 83.0662L449.103 82.3503L418.245 1.86647L416.378 2.58245ZM449.1 83.0726L480.594 2.58886L478.732 1.86006L447.238 82.3438L449.1 83.0726ZM479.593 3.22204C486.475 3.70217 494.797 3.70302 500.739 3.22119L500.578 1.22774C494.75 1.70027 486.53 1.70112 479.732 1.22689L479.593 3.22204ZM499.659 2.22446V5.24658H501.659V2.22446H499.659ZM500.52 4.25617C497.02 4.74454 494.314 5.70056 492.483 7.39576C490.612 9.12843 489.797 11.4974 489.797 14.472H491.797C491.797 11.8795 492.493 10.113 493.842 8.86328C495.232 7.57613 497.457 6.70298 500.797 6.23698L500.52 4.25617ZM489.797 14.472V88.9115H491.797V14.472H489.797ZM489.797 88.9115C489.797 92.6057 490.575 95.0389 492.647 96.5743C493.639 97.3099 494.859 97.7835 496.257 98.135C497.654 98.4864 499.297 98.7309 501.168 98.9698L501.421 96.9859C499.555 96.7476 498.016 96.515 496.744 96.1954C495.473 95.8758 494.535 95.4846 493.838 94.9675C492.529 93.9978 491.797 92.375 491.797 88.9115H489.797ZM500.295 97.9779V101H502.295V97.9779H500.295ZM501.342 100.001C491.13 99.5224 478.852 99.5225 468.007 100.001L468.096 101.999C478.883 101.523 491.1 101.523 501.248 101.999L501.342 100.001ZM469.051 101V97.9779H467.051V101H469.051ZM468.168 98.971C470.199 98.7322 471.958 98.4883 473.443 98.1385C474.926 97.789 476.205 97.3187 477.238 96.5871C479.406 95.0528 480.186 92.6072 480.186 88.9115H478.186C478.186 92.3735 477.454 93.9839 476.083 94.9547C475.347 95.4758 474.349 95.8703 472.984 96.1918C471.621 96.5131 469.96 96.7464 467.935 96.9847L468.168 98.971ZM480.186 88.9115V14.1539H478.186V88.9115H480.186ZM478.255 13.789L444.216 100.635L446.078 101.365L480.117 14.5188L478.255 13.789ZM445.147 100H443.715V102H445.147V100ZM444.646 100.634L410.448 13.7875L408.587 14.5203L442.785 101.366L444.646 100.634ZM408.518 14.1539V88.9115H410.518V14.1539H408.518ZM408.518 88.9115C408.518 90.6865 408.722 92.1879 409.249 93.444C409.788 94.7284 410.642 95.7012 411.833 96.4414C412.998 97.1652 414.463 97.6527 416.219 98.0309C417.979 98.4102 420.1 98.6929 422.609 98.9718L422.83 96.984C420.329 96.7061 418.294 96.4322 416.64 96.0758C414.981 95.7184 413.772 95.2913 412.889 94.7426C412.032 94.2103 411.464 93.5528 411.094 92.67C410.711 91.7589 410.518 90.5563 410.518 88.9115H408.518ZM421.72 97.9779V101H423.72V97.9779H421.72ZM422.765 100.001C412.24 99.5226 402.027 99.5222 392.923 100.001L393.028 101.999C402.057 101.523 412.204 101.523 422.674 101.999L422.765 100.001Z" fill="#E8ECEE" mask="url(#path-1-outside-1_805_19203)"/>
</g>
</svg>
