<svg width="40" height="41" viewBox="0 0 40 41" fill="none" xmlns="http://www.w3.org/2000/svg">
<g clip-path="url(#clip0_817_10740)">
<path d="M33.0031 12.7531C34.2055 11.5808 33.5422 9.53552 31.8812 9.29221L25.3681 8.33375C25.2415 8.31504 25.1212 8.26594 25.0177 8.19066C24.9142 8.11538 24.8304 8.01614 24.7736 7.90144L21.8618 1.99933C21.1174 0.490835 18.9659 0.49138 18.2217 1.99933L15.3088 7.90144C15.2523 8.01606 15.1689 8.11527 15.0656 8.19057C14.9624 8.26587 14.8424 8.315 14.716 8.33375L8.20232 9.29221C6.54093 9.53552 5.87822 11.581 7.08038 12.7531L11.7934 17.3493C11.8853 17.4386 11.954 17.5489 11.9937 17.6708C12.0334 17.7926 12.0428 17.9223 12.0211 18.0486L10.9082 24.5108C10.621 26.1711 12.3671 27.4308 13.8496 26.6536L17.8223 24.5739C17.695 27.4685 17.2931 30.2486 15.471 32.6865H14.6688C13.301 32.6865 12.1887 33.7988 12.1887 35.1665V38.5699H10.479C10.1363 38.5699 9.85897 38.8472 9.85897 39.1898C9.85897 39.5325 10.1363 39.8098 10.479 39.8098H29.6046C29.9473 39.8098 30.2246 39.5325 30.2246 39.1898C30.2246 38.8472 29.9473 38.5699 29.6046 38.5699H27.8947V35.1665C27.8947 33.7988 26.7825 32.6865 25.4147 32.6865H24.6125C22.7903 30.2486 22.3884 27.4685 22.2612 24.5739L26.2339 26.6536C27.7217 27.4348 29.4617 26.1667 29.1752 24.5108L28.063 18.0486C28.0412 17.9224 28.0505 17.7927 28.09 17.6709C28.1296 17.549 28.1982 17.4386 28.29 17.3493L33.0031 12.7531ZM26.6548 35.1665V38.5699H13.4288V35.1665C13.4288 34.483 13.9852 33.9266 14.6688 33.9266H25.4147C26.0983 33.9265 26.6548 34.4829 26.6548 35.1665ZM23.1006 32.6865H16.9829C18.7062 29.9667 18.9924 26.9837 19.0886 23.911L19.6755 23.6038C19.7885 23.5448 19.9142 23.5139 20.0418 23.5139C20.1694 23.5139 20.295 23.5448 20.4081 23.6038L20.995 23.911C21.0912 26.9837 21.3774 29.9667 23.1006 32.6865ZM26.8413 18.2593L27.9536 24.7215C28.0643 25.3654 27.3947 25.859 26.8092 25.5552L20.9827 22.5055C20.6923 22.3533 20.3694 22.2739 20.0415 22.2739C19.7137 22.2739 19.3908 22.3533 19.1004 22.5055L13.2745 25.5552C12.6903 25.8596 12.0194 25.3657 12.1302 24.7215L13.243 18.2593C13.2989 17.9348 13.2749 17.6016 13.1733 17.2884C13.0716 16.9752 12.8952 16.6915 12.6593 16.4617L7.94625 11.8655C7.47729 11.4082 7.73484 10.6145 8.38276 10.519L14.8971 9.5605C15.222 9.51256 15.5304 9.38647 15.7959 9.19306C16.0613 8.99964 16.2759 8.74468 16.4211 8.45008L19.3334 2.54797C19.6241 1.96012 20.4592 1.95957 20.7502 2.54797L23.662 8.4507C23.8076 8.74511 24.0225 8.99985 24.2881 9.19312C24.5537 9.38639 24.8622 9.51245 25.1871 9.5605L31.7008 10.519C32.349 10.6145 32.6061 11.4083 32.1373 11.8655L27.4243 16.4617C27.1886 16.6916 27.0124 16.9753 26.9108 17.2885C26.8092 17.6017 26.7854 17.9349 26.8413 18.2593Z" fill="white"/>
<path d="M22.4899 35.6286H17.5941C17.2514 35.6286 16.9741 35.9059 16.9741 36.2486C16.9741 36.5913 17.2514 36.8686 17.5941 36.8686H22.4899C22.8326 36.8686 23.1099 36.5913 23.1099 36.2486C23.1099 35.9059 22.8326 35.6286 22.4899 35.6286ZM35.1303 7.75995L34.4304 8.67297C34.2221 8.94484 34.2741 9.33358 34.546 9.5418C34.8168 9.74962 35.2073 9.69874 35.4148 9.42617L36.1147 8.51315C36.323 8.24128 36.271 7.85254 35.9991 7.64433C35.7286 7.43657 35.3374 7.48808 35.1303 7.75995ZM35.3792 11.2359C35.3792 11.3174 35.3952 11.398 35.4263 11.4733C35.4575 11.5485 35.5031 11.6169 35.5607 11.6744C35.6183 11.732 35.6866 11.7777 35.7619 11.8088C35.8371 11.84 35.9178 11.856 35.9992 11.8559H37.149C37.4917 11.8559 37.769 11.5786 37.769 11.2359C37.769 10.8933 37.4917 10.616 37.149 10.616H35.9992C35.9178 10.6159 35.8371 10.6319 35.7619 10.6631C35.6866 10.6942 35.6183 10.7399 35.5607 10.7975C35.5031 10.855 35.4575 10.9234 35.4263 10.9986C35.3952 11.0739 35.3792 11.1545 35.3792 11.2359ZM34.4304 13.7983L35.1303 14.7113C35.3377 14.9837 35.7282 15.0349 35.9991 14.8269C36.271 14.6187 36.323 14.2299 36.1147 13.9581L35.4148 13.0451C35.2078 12.7732 34.8173 12.7218 34.546 12.9295C34.2742 13.1378 34.2221 13.5264 34.4304 13.7983ZM5.65353 8.67297L4.95363 7.75995C4.74658 7.48808 4.35659 7.43665 4.0848 7.64433C3.81294 7.85262 3.76088 8.24128 3.96918 8.51315L4.66908 9.42617C4.87652 9.69858 5.26697 9.74978 5.5379 9.5418C5.80969 9.33358 5.86182 8.94484 5.65353 8.67297ZM2.31494 11.2359C2.3149 11.3174 2.33091 11.398 2.36205 11.4733C2.39319 11.5485 2.43886 11.6169 2.49644 11.6744C2.55402 11.732 2.62238 11.7777 2.69762 11.8088C2.77286 11.84 2.8535 11.856 2.93493 11.8559H4.08473C4.4274 11.8559 4.70471 11.5786 4.70471 11.2359C4.70471 10.8933 4.4274 10.616 4.08473 10.616H2.93493C2.8535 10.6159 2.77286 10.6319 2.69762 10.6631C2.62238 10.6942 2.55402 10.7399 2.49644 10.7975C2.43886 10.855 2.39319 10.9234 2.36205 10.9986C2.33091 11.0739 2.3149 11.1545 2.31494 11.2359ZM4.669 13.0451L3.9691 13.9581C3.7608 14.23 3.81286 14.6187 4.08473 14.8269C4.3555 15.0348 4.74603 14.9839 4.95355 14.7113L5.65345 13.7983C5.86175 13.5264 5.80969 13.1377 5.53782 12.9295C5.26782 12.7218 4.87667 12.7732 4.669 13.0451Z" fill="white"/>
</g>
<defs>
<clipPath id="clip0_817_10740">
<rect width="39.8386" height="39.8386" fill="white" transform="translate(0.122559 0.419922)"/>
</clipPath>
</defs>
</svg>
