<svg width="24" height="25" viewBox="0 0 24 25" fill="none" xmlns="http://www.w3.org/2000/svg">
<g clip-path="url(#clip0_535_9328)">
<path d="M22.6318 16.0673V14.7769C22.6318 13.5736 21.6528 12.5947 20.4496 12.5947H12.0918C11.9984 12.5947 11.9088 12.6318 11.8427 12.6978C11.7767 12.7639 11.7396 12.8535 11.7396 12.9469C11.7396 13.0404 11.7767 13.13 11.8427 13.196C11.9088 13.2621 11.9984 13.2992 12.0918 13.2992H20.4496C21.2644 13.2992 21.9273 13.9621 21.9273 14.777V16.0674C21.147 16.2304 20.5591 16.9235 20.5591 17.7515V19.0597H9.30404V17.7515C9.30404 16.9235 8.71608 16.2304 7.9358 16.0674V14.777C7.9358 13.9621 8.59876 13.2992 9.41358 13.2992H10.6829C10.7763 13.2992 10.8659 13.2621 10.932 13.196C10.998 13.13 11.0351 13.0404 11.0351 12.9469C11.0351 12.8535 10.998 12.7639 10.932 12.6978C10.8659 12.6318 10.7763 12.5947 10.6829 12.5947H9.41358C8.21026 12.5947 7.23132 13.5736 7.23132 14.7769V16.0673C6.45104 16.2303 5.86304 16.9235 5.86304 17.7514V22.7683C5.86303 22.8146 5.87214 22.8604 5.88984 22.9031C5.90754 22.9459 5.93349 22.9847 5.9662 23.0174C5.99891 23.0501 6.03775 23.0761 6.08049 23.0938C6.12323 23.1115 6.16904 23.1206 6.2153 23.1206H17.0801C17.2747 23.1206 17.4324 22.9629 17.4324 22.7683C17.4324 22.5737 17.2747 22.4161 17.0801 22.4161H9.30404V19.7641H20.5591V22.4161H18.4891C18.2945 22.4161 18.1368 22.5737 18.1368 22.7683C18.1368 22.9629 18.2945 23.1206 18.4891 23.1206H23.6478C23.6941 23.1206 23.7399 23.1115 23.7826 23.0938C23.8254 23.0761 23.8642 23.0501 23.8969 23.0174C23.9296 22.9847 23.9556 22.9459 23.9733 22.9031C23.991 22.8604 24.0001 22.8146 24.0001 22.7683V17.7515C24.0001 16.9235 23.4121 16.2304 22.6318 16.0673ZM6.56752 17.7515C6.56752 17.1913 7.02329 16.7355 7.58354 16.7355C8.14379 16.7355 8.59955 17.1913 8.59955 17.7515V22.4161H6.56752V17.7515ZM23.2956 22.4161H21.2635V17.7515C21.2635 17.1913 21.7193 16.7355 22.2796 16.7355C22.8398 16.7355 23.2955 17.1913 23.2955 17.7515V22.4161H23.2956ZM8.97568 10.0809C8.99288 10.2585 9.14761 10.3988 9.32621 10.3988H20.5369C20.7285 10.3988 20.8891 10.2382 20.8891 10.0465V1.76874C20.8891 1.57711 20.7285 1.41647 20.5369 1.41647H18.4891C18.2945 1.41647 18.1368 1.57416 18.1368 1.76874C18.1368 1.96332 18.2945 2.121 18.4891 2.121H19.6865L19.0343 2.77313H10.8287L10.1766 2.121H17.08C17.2746 2.121 17.4323 1.96332 17.4323 1.76874C17.4323 1.57416 17.2746 1.41647 17.08 1.41647H9.32616C9.1344 1.41647 8.9739 1.57735 8.9739 1.76874V10.0465C8.97394 10.0579 8.97455 10.0696 8.97568 10.0809ZM10.1766 9.69432L10.8287 9.04215H19.0343L19.6864 9.69432H10.1766ZM18.828 8.33761H15.6276L15.0404 7.6854L16.9447 5.57011C17.0579 5.44425 17.2593 5.44608 17.3721 5.57133L18.828 7.17296V8.33761ZM14.6796 8.33761H11.0351V8.08069L12.5767 6.36835C12.6638 6.2715 12.8195 6.27146 12.9067 6.36835L14.6796 8.33761ZM20.1846 2.61919V9.19608L19.5325 8.54396V3.27132L20.1846 2.61919ZM18.828 6.12563L17.8945 5.09874C17.5066 4.66791 16.809 4.66791 16.4211 5.09874L14.5664 7.1589L13.4303 5.89697C13.3433 5.80053 13.2371 5.72341 13.1185 5.6706C12.9999 5.61778 12.8715 5.59045 12.7417 5.59036C12.4812 5.59036 12.2274 5.70343 12.0531 5.89697L11.0351 7.02774V3.47761H18.828V6.12563ZM10.3306 3.27132V8.544L9.67843 9.19613V2.61919L10.3306 3.27132Z" fill="#A4A4A4"/>
<path d="M3.96997 21.1468H3.62436V8.9556H4.52914V12.9412C4.52914 13.0347 4.56625 13.1243 4.63232 13.1903C4.69838 13.2564 4.78798 13.2935 4.88141 13.2935C4.97483 13.2935 5.06443 13.2564 5.13049 13.1903C5.19656 13.1243 5.23367 13.0347 5.23367 12.9412V8.9556H6.19212C6.41473 8.9556 6.58517 8.74199 6.53553 8.52482L5.30028 3.12168C5.2825 3.04391 5.23884 2.97447 5.17646 2.92474C5.11407 2.87501 5.03665 2.84793 4.95687 2.84793H1.58731C1.50753 2.84793 1.43011 2.87501 1.36773 2.92474C1.30534 2.97447 1.26169 3.04391 1.24391 3.12168L0.00865556 8.52482C-0.0409851 8.74199 0.129452 8.9556 0.352062 8.9556H2.91987V21.1468H2.57427C1.70928 21.1468 1.00559 21.8504 1.00559 22.7154V22.7683C1.00559 22.8146 1.0147 22.8604 1.03241 22.9031C1.05011 22.9459 1.07606 22.9847 1.10877 23.0174C1.14148 23.0501 1.18031 23.0761 1.22305 23.0938C1.26579 23.1115 1.3116 23.1206 1.35786 23.1206H5.18637C5.23263 23.1206 5.27844 23.1115 5.32118 23.0938C5.36392 23.0761 5.40275 23.0501 5.43546 23.0174C5.46817 22.9847 5.49412 22.9459 5.51183 22.9031C5.52953 22.8604 5.53864 22.8146 5.53864 22.7683V22.7154C5.53859 21.8505 4.83491 21.1468 3.96997 21.1468ZM1.86814 3.55246H4.67609L5.75028 8.25112H0.793906L1.86814 3.55246ZM1.76351 22.4161C1.88553 22.0867 2.20287 21.8513 2.57422 21.8513H3.96992C4.34126 21.8513 4.65861 22.0866 4.78062 22.4161H1.76351ZM14.5663 5.85154C15.1148 5.85154 15.561 5.40529 15.561 4.85681C15.561 4.30827 15.1148 3.86207 14.5663 3.86207C14.0178 3.86207 13.5716 4.30832 13.5716 4.85681C13.5716 5.40529 14.0178 5.85154 14.5663 5.85154ZM14.5663 4.56656C14.7263 4.56656 14.8565 4.69677 14.8565 4.85681C14.8565 5.01684 14.7263 5.14706 14.5663 5.14706C14.4063 5.14706 14.276 5.01684 14.276 4.85681C14.2761 4.77985 14.3067 4.70608 14.3612 4.65166C14.4156 4.59725 14.4893 4.56664 14.5663 4.56656Z" fill="#A4A4A4"/>
</g>
<defs>
<clipPath id="clip0_535_9328">
<rect width="24" height="24" fill="white" transform="translate(0 0.268555)"/>
</clipPath>
</defs>
</svg>
