<svg width="24" height="25" viewBox="0 0 24 25" fill="none" xmlns="http://www.w3.org/2000/svg">
<path d="M0 2.57059V21.9665H24V2.57059H0ZM7.75514 17.843H1.43733V18.5777H7.75514V21.2318H0.734672V3.30531H7.75509L7.75514 17.843ZM15.5102 21.2318H8.48981V18.5777H15.5102V21.2318H15.5102ZM23.2653 21.2318H16.2449V18.5777H23.2653V21.2318H23.2653ZM23.2653 17.843H16.2449V16.3274H15.5102V17.843H8.48981V3.30531H15.5102V13.1238H16.2449V3.30531H23.2652V17.843H23.2653Z" fill="#A4A4A4"/>
<path d="M15.5104 13.9799H16.2451V14.7136H15.5104V13.9799ZM1.13599 6.33582L2.9621 3.72816L3.56383 4.14957L1.73777 6.75722L1.13599 6.33582ZM1.84272 7.6381L3.66883 5.03044L4.27061 5.45185L2.4445 8.0595L1.84272 7.6381ZM8.89113 6.33535L10.7172 3.72769L11.319 4.1491L9.49291 6.75675L8.89113 6.33535ZM9.59777 7.6388L11.424 5.03058L12.0259 5.45199L10.1996 8.06021L9.59777 7.6388ZM16.6451 6.33643L18.4712 3.72877L19.073 4.15018L17.2469 6.75783L16.6451 6.33643ZM17.3523 7.63889L19.1785 5.03072L19.7804 5.45213L17.9542 8.06035L17.3523 7.63889Z" fill="#A4A4A4"/>
</svg>
