<svg width="24" height="25" viewBox="0 0 24 25" fill="none" xmlns="http://www.w3.org/2000/svg">
<path d="M21.1367 16.0242L17.9465 13.7068C17.7724 13.5802 17.5365 13.6333 17.4213 13.8269C17.3063 14.0203 17.355 14.2804 17.53 14.4073L20.1671 16.3229L9.1083 20.6642L1.22074 14.8957L5.72983 13.0818C5.92648 13.0027 6.02834 12.7621 5.95631 12.5445C5.88477 12.3271 5.66689 12.2145 5.47049 12.2941L0.248347 14.395C0.0577617 14.4715 -0.0423336 14.6998 0.0170664 14.9119V17.4025C0.0170664 17.4514 0.026166 17.4975 0.0400681 17.5411C0.0425958 17.6738 0.101743 17.8029 0.209421 17.8817L8.84744 24.199C8.9119 24.2459 8.98469 24.2686 9.05648 24.2686C9.13155 24.2686 9.20409 24.2412 9.26729 24.1945L21.1657 19.5237C21.3058 19.4687 21.397 19.3315 21.4137 19.1786C21.4347 19.1267 21.4468 19.0694 21.4468 19.0088V16.4357C21.4466 16.2304 21.3128 16.0602 21.1367 16.0242ZM0.775364 15.5752L8.67758 21.3544V23.0696L0.775364 17.2904V15.5752ZM9.43588 21.4251L20.6885 17.0077V18.8213L9.43588 23.2387V21.4251Z" fill="#A4A4A4"/>
<path d="M24 7.1391C24 6.92995 23.8666 6.75642 23.6904 6.71967L15.1386 0.33785C15.1318 0.332722 15.1242 0.329872 15.1174 0.325313C15.1057 0.317905 15.0944 0.310496 15.082 0.304512C15.0704 0.298814 15.0587 0.294255 15.0471 0.28998C15.0357 0.285706 15.0246 0.281717 15.013 0.278868C15.0003 0.275733 14.9877 0.273739 14.9748 0.272029C14.9634 0.270604 14.9521 0.268895 14.9404 0.26861C14.9273 0.268325 14.9144 0.26918 14.9013 0.27032C14.8899 0.271174 14.8785 0.272314 14.8669 0.274309C14.8535 0.276873 14.8403 0.280862 14.8272 0.285136C14.8194 0.287701 14.8115 0.288556 14.8037 0.291405L2.80578 5.05248C2.61192 5.12941 2.5093 5.36591 2.57122 5.58503V8.12157C2.57122 8.17001 2.57982 8.21589 2.59321 8.2592C2.59498 8.39569 2.65438 8.52904 2.76281 8.60996L11.399 15.0547C11.4635 15.1026 11.536 15.1257 11.6081 15.1257C11.6834 15.1257 11.7562 15.0978 11.8194 15.0496L23.7177 10.2888C23.8572 10.233 23.948 10.0942 23.9654 9.93921C23.9871 9.88535 24 9.8258 24 9.76283V7.1391ZM14.8775 1.16817L22.7228 7.02284L11.6599 11.4491L3.78269 5.57078L14.8775 1.16817ZM3.3295 6.25778L11.2292 12.1529V13.9024L3.3295 8.00731V6.25778ZM11.9875 12.225L23.2418 7.72209V9.57164L11.9875 14.0748V12.225Z" fill="#A4A4A4"/>
</svg>
