<svg width="41" height="40" viewBox="0 0 41 40" fill="none" xmlns="http://www.w3.org/2000/svg">
<path d="M24.1096 22.0382C24.0272 22.0668 23.9513 22.1115 23.8862 22.1695C23.8211 22.2275 23.7681 22.2978 23.7301 22.3763C23.6922 22.4548 23.6701 22.54 23.6651 22.6271C23.66 22.7142 23.6722 22.8014 23.7009 22.8837C23.7296 22.9661 23.7742 23.042 23.8323 23.1071C23.8903 23.1722 23.9605 23.2252 24.0391 23.2632C24.1176 23.3011 24.2028 23.3233 24.2899 23.3283C24.3769 23.3333 24.4641 23.3211 24.5465 23.2924C27.2172 22.3668 29.4735 20.5249 30.915 18.0936C32.3565 15.6624 32.89 12.799 32.4207 10.0117C31.9513 7.22443 30.5097 4.6936 28.3515 2.86841C26.1933 1.04322 23.4582 0.041748 20.6317 0.041748C17.8052 0.041748 15.0701 1.04322 12.9119 2.86841C10.7537 4.6936 9.31203 7.22443 8.84272 10.0117C8.37342 12.799 8.90687 15.6624 10.3484 18.0936C11.7899 20.5249 14.0462 22.3668 16.7169 23.2924C16.8833 23.3503 17.0659 23.3396 17.2244 23.2629C17.383 23.1861 17.5046 23.0495 17.5625 22.8831C17.6203 22.7167 17.6097 22.5341 17.5329 22.3755C17.4561 22.2169 17.3195 22.0953 17.1531 22.0375C16.0051 21.6369 14.9347 21.0417 13.9886 20.278V19.5549C13.9873 18.5431 14.2931 17.5548 14.8656 16.7206C15.4381 15.8865 16.2504 15.2457 17.1949 14.8831C18.1986 15.5942 19.3983 15.9761 20.6284 15.9761C21.8584 15.9761 23.0581 15.5942 24.0618 14.8831C25.0063 15.2457 25.8186 15.8865 26.3911 16.7206C26.9636 17.5548 27.2695 18.5431 27.2681 19.5549V20.2806C26.3237 21.043 25.2553 21.6375 24.1096 22.0382ZM15.9805 10.0003C15.9805 9.081 16.2531 8.18238 16.7638 7.41805C17.2745 6.65372 18.0004 6.05799 18.8497 5.70621C19.699 5.35442 20.6335 5.26238 21.5351 5.44172C22.4367 5.62106 23.2649 6.06372 23.9149 6.71373C24.5649 7.36375 25.0076 8.19191 25.1869 9.0935C25.3662 9.9951 25.2742 10.9296 24.9224 11.7789C24.5706 12.6282 23.9749 13.3541 23.2106 13.8648C22.4462 14.3755 21.5476 14.6481 20.6284 14.6481C19.3961 14.6467 18.2147 14.1566 17.3434 13.2852C16.4721 12.4139 15.9819 11.2325 15.9805 10.0003ZM25.1434 13.8998C25.8932 13.0339 26.3782 11.9707 26.5409 10.837C26.7036 9.70317 26.537 8.54652 26.061 7.50473C25.585 6.46294 24.8196 5.57989 23.856 4.96074C22.8924 4.34159 21.7711 4.01241 20.6257 4.01241C19.4803 4.01241 18.3591 4.34159 17.3954 4.96074C16.4318 5.57989 15.6664 6.46294 15.1904 7.50473C14.7144 8.54652 14.5478 9.70317 14.7105 10.837C14.8732 11.9707 15.3583 13.0339 16.108 13.8998C15.1465 14.3914 14.3268 15.121 13.7271 16.0191C13.1274 16.9172 12.7675 17.9538 12.6819 19.0303C8.89722 14.7643 9.15485 8.27126 13.2669 4.31926C17.3789 0.367937 23.8772 0.367937 27.9899 4.31926C32.1019 8.27126 32.3602 14.7643 28.5748 19.0303C28.4889 17.9532 28.1284 16.9161 27.5277 16.0179C26.927 15.1198 26.1061 14.3905 25.1434 13.8998Z" fill="white"/>
<path d="M14.9183 39.6208C15.1173 39.7676 15.3536 39.8555 15.6001 39.8744C15.8467 39.8933 16.0936 39.8425 16.3127 39.7277L20.6332 37.4828L24.953 39.7284C25.1726 39.8425 25.4198 39.8931 25.6666 39.8742C25.9134 39.8554 26.15 39.768 26.3498 39.6218C26.5495 39.4756 26.7044 39.2765 26.797 39.047C26.8897 38.8175 26.9163 38.5666 26.8739 38.3227L26.0532 33.5872L29.5258 30.2401C29.7046 30.0677 29.8315 29.8487 29.892 29.6078C29.9526 29.3669 29.9444 29.1138 29.8683 28.8774C29.7922 28.6409 29.6514 28.4306 29.4617 28.2702C29.2721 28.1098 29.0412 28.0058 28.7954 27.97L23.975 27.2775L21.8237 22.953C21.7142 22.7311 21.5445 22.5444 21.334 22.4143C21.1235 22.2842 20.8806 22.2159 20.6332 22.2173C20.3864 22.2164 20.1443 22.2847 19.9344 22.4143C19.7244 22.544 19.555 22.7299 19.4453 22.951L17.2821 27.2775L12.4722 27.9693C12.2263 28.005 11.9953 28.109 11.8055 28.2694C11.6158 28.4299 11.4748 28.6404 11.3987 28.8769C11.3227 29.1135 11.3145 29.3667 11.3751 29.6077C11.4358 29.8486 11.5628 30.0678 11.7418 30.2401L15.2158 33.5872L14.3944 38.3227C14.3514 38.5664 14.3777 38.8173 14.4704 39.0468C14.563 39.2763 14.7182 39.4752 14.9183 39.6208ZM12.6608 29.284L17.8146 28.5423C17.9207 28.5271 18.0215 28.4864 18.1085 28.4238C18.1954 28.3611 18.2659 28.2783 18.3139 28.1825L20.6325 23.5453L22.9412 28.1811C22.989 28.2773 23.0596 28.3604 23.1466 28.4233C23.2337 28.4862 23.3348 28.5271 23.4411 28.5423L28.6055 29.284L24.878 32.8755C24.7999 32.9508 24.7414 33.0441 24.7078 33.1472C24.6741 33.2504 24.6662 33.3602 24.6848 33.4671L25.5659 38.5511L20.9399 36.1469C20.8454 36.0978 20.7404 36.0721 20.6338 36.0721C20.5273 36.0721 20.4223 36.0978 20.3277 36.1469L15.7011 38.5511L16.5822 33.4684C16.6008 33.3615 16.5929 33.2517 16.5592 33.1486C16.5256 33.0454 16.4671 32.9521 16.389 32.8768L12.6608 29.284Z" fill="white"/>
<path d="M3.82967 29.4028L3.18096 33.1536C3.14173 33.3745 3.1651 33.6019 3.24842 33.8102C3.33174 34.0184 3.47169 34.1992 3.65243 34.3321C3.83317 34.465 4.04749 34.5446 4.27114 34.562C4.49478 34.5793 4.71883 34.5338 4.91793 34.4304L8.34471 32.647L11.7695 34.4344C11.8468 34.4747 11.9314 34.4993 12.0182 34.507C12.1051 34.5146 12.1926 34.505 12.2758 34.4788C12.359 34.4526 12.4362 34.4103 12.503 34.3542C12.5698 34.2982 12.6249 34.2296 12.6652 34.1522C12.7055 34.0749 12.7301 33.9904 12.7378 33.9035C12.7454 33.8166 12.7358 33.7291 12.7096 33.6459C12.6834 33.5627 12.6411 33.4855 12.585 33.4187C12.529 33.3519 12.4604 33.2968 12.383 33.2565L8.65147 31.3111C8.55674 31.2617 8.45152 31.2359 8.34471 31.2359C8.23791 31.2359 8.13268 31.2617 8.03795 31.3111L4.53415 33.1363L5.19812 29.2853C5.2167 29.1784 5.20881 29.0686 5.17512 28.9654C5.14144 28.8623 5.083 28.769 5.00491 28.6937L2.185 25.9714L6.08719 25.411C6.19335 25.3957 6.29422 25.3549 6.38117 25.2921C6.46813 25.2293 6.53858 25.1464 6.5865 25.0504L8.34471 21.5353L10.0963 25.0498C10.1442 25.146 10.2149 25.2292 10.3021 25.2921C10.3893 25.355 10.4905 25.3958 10.5969 25.411L14.766 26.0085C14.9404 26.0335 15.1175 25.9881 15.2584 25.8824C15.3993 25.7768 15.4924 25.6195 15.5173 25.4452C15.5422 25.2708 15.4969 25.0937 15.3912 24.9528C15.2856 24.8119 15.1283 24.7188 14.9539 24.6939L11.1294 24.1461L9.41836 20.712C9.31901 20.5117 9.16548 20.3434 8.97522 20.226C8.78496 20.1086 8.5656 20.047 8.34205 20.048H8.33807C7.88657 20.0473 7.4749 20.303 7.27571 20.708L5.55601 24.1461L1.74279 24.6932C1.51911 24.723 1.30845 24.8156 1.13516 24.9601C0.961877 25.1046 0.833054 25.2953 0.763595 25.51C0.694135 25.7247 0.686877 25.9547 0.742659 26.1733C0.798442 26.392 0.914986 26.5904 1.07881 26.7456L3.82967 29.4028ZM40.4878 25.5079C40.4199 25.2943 40.2928 25.1045 40.1211 24.9603C39.9495 24.8162 39.7405 24.7238 39.5184 24.6939L35.7006 24.1461L33.9848 20.7087C33.7863 20.303 33.374 20.0447 32.9225 20.0447H32.9185C32.6948 20.0435 32.4753 20.1051 32.2849 20.2225C32.0946 20.3399 31.9409 20.5083 31.8415 20.7087L30.1311 24.1421L26.306 24.6899C26.1316 24.7148 25.9743 24.8079 25.8687 24.9488C25.763 25.0897 25.7176 25.2668 25.7426 25.4412C25.7675 25.6155 25.8606 25.7728 26.0015 25.8785C26.1424 25.9841 26.3195 26.0295 26.4939 26.0046L30.6636 25.407C30.7701 25.3918 30.8713 25.351 30.9585 25.2881C31.0457 25.2252 31.1163 25.142 31.1643 25.0458L32.9119 21.5353L34.6668 25.0504C34.7147 25.1464 34.7851 25.2293 34.8721 25.2921C34.959 25.3549 35.0599 25.3957 35.1661 25.411L39.0663 25.9707L36.2463 28.693C36.1683 28.7683 36.1098 28.8616 36.0761 28.9648C36.0425 29.0679 36.0346 29.1777 36.0531 29.2846L36.7204 33.1357L33.2166 31.3084C33.1219 31.2591 33.0167 31.2333 32.9099 31.2333C32.8031 31.2333 32.6978 31.2591 32.6031 31.3084L28.8716 33.2539C28.7942 33.2941 28.7256 33.3493 28.6695 33.4161C28.6135 33.4829 28.5712 33.5601 28.545 33.6433C28.5188 33.7264 28.5092 33.814 28.5168 33.9008C28.5244 33.9877 28.5491 34.0722 28.5894 34.1496C28.6297 34.2269 28.6848 34.2955 28.7516 34.3516C28.8184 34.4076 28.8956 34.45 28.9788 34.4762C29.062 34.5024 29.1495 34.5119 29.2363 34.5043C29.3232 34.4967 29.4077 34.472 29.4851 34.4317L32.9119 32.647L36.338 34.4344C36.5368 34.5377 36.7605 34.5833 36.9839 34.566C37.2072 34.5488 37.4213 34.4694 37.6019 34.3368C37.7825 34.2043 37.9223 34.0238 38.0057 33.8159C38.0891 33.6079 38.1126 33.3808 38.0736 33.1602L37.4269 29.4028L40.1797 26.7469C40.343 26.5906 40.4586 26.3913 40.5131 26.172C40.5676 25.9527 40.5589 25.7224 40.4878 25.5079ZM16.9764 31.3396C17.0083 31.3396 17.0402 31.3369 17.072 31.3323L19.5692 30.9731C19.6753 30.9579 19.7762 30.9172 19.8631 30.8545C19.9501 30.7918 20.0205 30.709 20.0686 30.6132L21.2239 28.3032C21.2654 28.225 21.2909 28.1392 21.2988 28.051C21.3067 27.9627 21.2969 27.8738 21.27 27.7894C21.2431 27.705 21.1996 27.6268 21.1421 27.5594C21.0846 27.4921 21.0142 27.4369 20.935 27.3971C20.8559 27.3573 20.7695 27.3337 20.6812 27.3277C20.5928 27.3217 20.5041 27.3334 20.4203 27.3622C20.3365 27.3909 20.2593 27.4361 20.1932 27.4951C20.1271 27.5541 20.0734 27.6257 20.0354 27.7057L19.0394 29.7049L16.8848 30.015C16.7184 30.0387 16.5673 30.1246 16.4617 30.2553C16.3562 30.3861 16.3042 30.552 16.3162 30.7196C16.3281 30.8872 16.4032 31.044 16.5262 31.1584C16.6492 31.2729 16.811 31.3364 16.9791 31.3363L16.9764 31.3396Z" fill="white"/>
</svg>
