<svg width="28" height="27" viewBox="0 0 28 27" fill="none" xmlns="http://www.w3.org/2000/svg">
<path d="M16.8878 25.6013H10.1359C4.02532 25.6013 1.41455 22.9906 1.41455 16.88V10.128C1.41455 4.0175 4.02532 1.40674 10.1359 1.40674H16.8878C22.9984 1.40674 25.6091 4.0175 25.6091 10.128V16.88C25.6091 22.9906 22.9984 25.6013 16.8878 25.6013ZM10.1359 3.09473C4.94808 3.09473 3.10254 4.94027 3.10254 10.128V16.88C3.10254 22.0678 4.94808 23.9133 10.1359 23.9133H16.8878C22.0756 23.9133 23.9211 22.0678 23.9211 16.88V10.128C23.9211 4.94027 22.0756 3.09473 16.8878 3.09473H10.1359Z" fill="white"/>
<path d="M13.5117 18.2865C10.8784 18.2865 8.729 16.1371 8.729 13.5038C8.729 10.8706 10.8784 8.72119 13.5117 8.72119C16.1449 8.72119 18.2943 10.8706 18.2943 13.5038C18.2943 16.1371 16.1449 18.2865 13.5117 18.2865ZM13.5117 10.4092C11.8012 10.4092 10.417 11.7933 10.417 13.5038C10.417 15.2143 11.8012 16.5985 13.5117 16.5985C15.2222 16.5985 16.6063 15.2143 16.6063 13.5038C16.6063 11.7933 15.2222 10.4092 13.5117 10.4092Z" fill="white"/>
<path d="M19.1385 8.43988C18.9922 8.43988 18.8459 8.40612 18.7109 8.34986C18.5758 8.29359 18.4521 8.21482 18.3395 8.11354C18.2383 8.001 18.1482 7.87722 18.092 7.74218C18.0357 7.60714 18.0132 7.46085 18.0132 7.31455C18.0132 7.16826 18.0357 7.02197 18.092 6.88693C18.1595 6.74063 18.2383 6.6281 18.3395 6.51557C18.3958 6.47056 18.4521 6.41429 18.5083 6.38053C18.5758 6.33552 18.6434 6.30176 18.7109 6.27925C18.7784 6.24549 18.8459 6.22298 18.9247 6.21173C19.2848 6.13296 19.6674 6.25674 19.9375 6.51557C20.0388 6.6281 20.1175 6.74063 20.1738 6.88693C20.2301 7.02197 20.2638 7.16826 20.2638 7.31455C20.2638 7.46085 20.2301 7.60714 20.1738 7.74218C20.1175 7.87722 20.0388 8.001 19.9375 8.11354C19.825 8.21482 19.7012 8.29359 19.5661 8.34986C19.4311 8.40612 19.2848 8.43988 19.1385 8.43988Z" fill="white"/>
</svg>
