<svg width="24" height="25" viewBox="0 0 24 25" fill="none" xmlns="http://www.w3.org/2000/svg">
<g clip-path="url(#clip0_535_6533)">
<path d="M23.6202 2.99073C23.506 2.20435 22.8461 1.60988 22.0508 1.57716C21.9852 1.57449 21.9208 1.57196 21.8571 1.56948V0.620117C21.8571 0.526877 21.82 0.437456 21.7541 0.371525C21.6882 0.305594 21.5988 0.268555 21.5055 0.268555H6.51584C6.46766 0.268552 6.42 0.278454 6.37581 0.297646C6.33162 0.316838 6.29185 0.344909 6.25896 0.380117L2.9449 3.92762C2.88406 3.99272 2.85022 4.07851 2.85021 4.16762V18.4131C1.39512 18.5875 0.263184 19.8286 0.263184 21.33C0.263184 22.9503 1.58145 24.2686 3.20178 24.2686H18.9185C20.5388 24.2686 21.8571 22.9503 21.8571 21.33V7.64635C21.9216 7.64382 21.9863 7.64157 22.0508 7.6389C22.846 7.60674 23.506 7.01246 23.6202 6.22571C23.7757 5.15299 23.7757 4.06345 23.6202 2.99073ZM5.94176 3.72132C5.29395 3.52051 4.74429 3.47687 4.30132 3.50555L6.25742 1.41174C6.30354 2.38595 6.08201 3.27066 5.94176 3.72132ZM22.9243 6.12479C22.8587 6.57657 22.4794 6.91787 22.0222 6.93638C18.8334 7.0666 15.6406 7.0666 12.4518 6.93638C11.9946 6.91787 11.6156 6.57666 11.5503 6.12488C11.4045 5.11902 11.4045 4.09737 11.5503 3.09151C11.6155 2.63996 11.9947 2.29857 12.4519 2.27973C14.7459 2.18616 17.0422 2.15998 19.3377 2.20121C19.5322 2.20665 19.6921 2.05023 19.6955 1.85607C19.6964 1.80991 19.6881 1.76403 19.6712 1.72106C19.6543 1.6781 19.6291 1.63887 19.5971 1.60564C19.565 1.57241 19.5268 1.54581 19.4844 1.52737C19.4421 1.50894 19.3966 1.49902 19.3504 1.49818C17.041 1.45667 14.7309 1.48303 12.423 1.57721C11.6277 1.60998 10.9679 2.20459 10.8544 2.99087C10.8217 3.21761 10.7959 3.44529 10.777 3.6736C9.29464 3.94173 8.17315 5.25554 8.17315 6.78901C8.17315 8.53468 9.59332 9.95485 11.339 9.95485H16.252V10.5135H15.7539C15.2161 10.5135 14.7786 10.951 14.7786 11.4888C14.7786 11.9552 15.1079 12.3458 15.5462 12.4413C15.5089 13.5909 15.512 15.9263 15.548 16.7034C15.5759 17.3071 16.0521 17.7947 16.6556 17.8374C17.0429 17.8649 17.4316 17.8649 17.8189 17.8374C18.422 17.7947 18.8982 17.3072 18.9266 16.7034C18.9626 15.9249 18.9656 13.5899 18.9281 12.4413C19.3664 12.3459 19.6958 11.9553 19.6958 11.4888C19.6958 10.951 19.2583 10.5135 18.7205 10.5135H18.2225V9.95021C18.2225 8.86627 17.3405 7.98446 16.2564 7.98446H11.3391C10.6799 7.98446 10.1436 7.44821 10.1436 6.78901C10.1436 6.33432 10.4064 5.92791 10.7939 5.72691C10.8105 5.89341 10.8304 6.05968 10.8544 6.22557C10.968 7.01237 11.6279 7.60679 12.4231 7.63895C14.0269 7.70458 15.6319 7.73734 17.2371 7.7372C18.5446 7.7372 19.8523 7.71516 21.1539 7.67185V21.33C21.1539 22.5626 20.1511 23.5654 18.9184 23.5654C18.0147 23.5654 17.235 23.026 16.883 22.2525H18.9149L18.9185 22.2526C19.983 22.2526 20.8491 21.3865 20.8491 20.322C20.8491 19.258 19.9838 18.3923 18.92 18.3915C18.9194 18.3915 18.919 18.3913 18.9184 18.3913H7.67267C7.57943 18.3913 7.49001 18.4284 7.42408 18.4943C7.35814 18.5602 7.32111 18.6496 7.32111 18.7429C7.32111 18.8361 7.35814 18.9255 7.42408 18.9915C7.49001 19.0574 7.57943 19.0944 7.67267 19.0944H17.0142C16.3819 19.6339 15.9798 20.4356 15.9798 21.3299C15.9798 22.2242 16.3819 23.0259 17.0142 23.5654H3.20173C1.96911 23.5654 0.966262 22.5625 0.966262 21.3299C0.966262 20.0973 1.96911 19.0944 3.20173 19.0944H6.26642C6.35966 19.0944 6.44908 19.0574 6.51501 18.9915C6.58094 18.9255 6.61798 18.8361 6.61798 18.7429C6.61798 18.6496 6.58094 18.5602 6.51501 18.4943C6.44908 18.4284 6.35966 18.3913 6.26642 18.3913H3.55329V4.38048C3.88339 4.23849 4.72662 4.00266 6.03504 4.49663C6.07469 4.51164 6.11673 4.51935 6.15912 4.51937C6.22893 4.51935 6.29716 4.49856 6.35511 4.45964C6.41307 4.42073 6.45813 4.36545 6.48457 4.30084C6.51307 4.23123 7.12986 2.69438 6.92628 0.97168H21.1539V1.54407C21.0224 1.53974 20.8909 1.53571 20.7594 1.53198C20.5669 1.52748 20.4035 1.67935 20.398 1.87346C20.3954 1.96666 20.4299 2.0571 20.4939 2.12486C20.558 2.19263 20.6463 2.23218 20.7395 2.23482C21.1314 2.24593 21.5511 2.2606 22.0222 2.27968C22.4794 2.29848 22.8588 2.64001 22.9244 3.09165C23.0701 4.09745 23.0701 5.119 22.9243 6.12479ZM11.3391 8.68754H16.2564C16.9528 8.68754 17.5193 9.25393 17.5193 9.95016V10.5135H16.9552V9.95016C16.9552 9.56504 16.6417 9.25168 16.2564 9.25168H11.3391C9.98112 9.25168 8.87637 8.14693 8.87637 6.78896C8.87637 5.65257 9.66814 4.6719 10.7398 4.40124C10.7362 4.59629 10.7379 4.79138 10.7444 4.98638C9.9829 5.2396 9.44056 5.96523 9.44056 6.78896C9.44051 7.83587 10.2922 8.68754 11.3391 8.68754ZM18.2242 16.6706C18.2185 16.7904 18.169 16.904 18.0851 16.9898C18.0013 17.0756 17.8889 17.1276 17.7692 17.1361C17.4161 17.1611 17.0581 17.1611 16.7053 17.1361C16.4574 17.1185 16.2618 16.9185 16.2504 16.6708C16.212 15.8428 16.214 13.5517 16.2491 12.4641H18.2255C18.2627 13.5902 18.2598 15.9015 18.2242 16.6706ZM18.7205 11.7609H15.7539C15.6038 11.7609 15.4818 11.6388 15.4818 11.4887C15.4818 11.3386 15.6038 11.2166 15.7539 11.2166H18.7205C18.8706 11.2166 18.9927 11.3386 18.9927 11.4887C18.9927 11.6388 18.8706 11.7609 18.7205 11.7609ZM16.683 21.33C16.6826 20.9314 16.7895 20.54 16.9925 20.197C16.9897 20.2386 16.9882 20.2803 16.988 20.3221C16.988 20.7878 17.1537 21.2155 17.4294 21.5494H16.6939C16.6867 21.4765 16.6831 21.4032 16.683 21.33ZM18.9149 21.5493C18.2398 21.5474 17.6911 20.9976 17.6911 20.322C17.6911 19.6452 18.2418 19.0946 18.9185 19.0946C19.5953 19.0946 20.146 19.6452 20.146 20.322C20.146 20.9988 19.5953 21.5494 18.9185 21.5494H18.9184V21.5493H18.9149Z" fill="#A4A4A4"/>
</g>
<defs>
<clipPath id="clip0_535_6533">
<rect width="24" height="24" fill="white" transform="translate(0 0.268555)"/>
</clipPath>
</defs>
</svg>
