<svg width="20" height="15" viewBox="0 0 20 15" fill="none" xmlns="http://www.w3.org/2000/svg">
<path d="M0 0H20V15H0V0Z" fill="#128807"/>
<path d="M13.7067 4.07201C13.8855 4.28993 14.0686 4.52172 14.2522 4.76373C14.291 5.25706 14.3013 5.70949 14.3405 6.20351C14.335 6.41484 14.2694 6.69571 14.2071 6.72229C14.2071 6.72229 14.1121 6.77637 14.0486 6.71638C14.0025 6.69798 13.8179 6.4112 13.8179 6.4112C13.7234 6.32531 13.6606 6.34985 13.5934 6.4112C13.4081 6.58845 13.3241 6.92067 13.1982 7.1495C13.1657 7.20063 13.0742 7.24403 12.9726 7.14541C12.7609 6.85886 12.824 6.47369 12.8361 6.41393C12.8353 6.41798 12.8343 6.422 12.8331 6.42597C12.6031 6.68275 12.7049 7.1086 12.757 7.20017C12.8329 7.35061 12.8941 7.44673 13.0418 7.52126C13.1762 7.6192 13.281 7.55807 13.3386 7.48945C13.4739 7.35061 13.4757 6.99521 13.5392 6.92499C13.5837 6.79592 13.6954 6.81819 13.7498 6.87522C13.8025 6.95044 13.8649 6.9993 13.9424 7.0402C14.0686 7.15041 14.2192 7.17041 14.3676 7.06997C14.469 7.01361 14.5348 6.94021 14.5942 6.79569C14.6579 6.62685 14.6265 5.74176 14.6123 5.24956C14.7084 5.38382 14.8026 5.51934 14.8951 5.65609C14.9361 6.0883 14.9547 6.51392 14.9412 6.92204C14.9315 7.00316 15.2269 6.6798 15.2251 6.52641C15.2237 6.39234 15.2253 6.27077 15.2251 6.15783C15.3684 6.38462 15.5072 6.61504 15.6383 6.84841C15.7195 6.80569 15.6918 6.34985 15.6404 6.2869C15.503 6.05853 15.3274 5.81198 15.1911 5.6211C15.1643 5.38022 15.1276 5.09595 15.1109 5.00892C15.085 4.87325 15.0588 4.66919 15.0196 4.50808C15.0088 4.44514 14.9763 4.24426 14.9866 4.22494C15.0026 4.17995 15.0632 4.22631 15.093 4.17427C15.1375 4.1261 14.9384 3.61458 14.8373 3.46869C14.801 3.40325 14.7352 3.42597 14.6538 3.53232C14.5784 3.60231 14.6059 3.76206 14.6348 3.91385C14.7095 4.30107 14.7765 4.69533 14.8293 5.08845C14.7313 4.94415 14.6118 4.76986 14.4942 4.60148L14.4791 4.5249C14.4791 4.51785 14.4628 4.20813 14.449 4.13428C14.4465 4.10428 14.4394 4.09564 14.471 4.09951C14.5045 4.12746 14.5093 4.12905 14.5302 4.13837C14.5641 4.1445 14.5937 4.08769 14.5733 4.03497L14.2584 3.4587C14.2458 3.44642 14.2316 3.43347 14.2153 3.43097C14.199 3.42847 14.1812 3.43643 14.1612 3.46574C14.1366 3.487 14.1168 3.51326 14.1033 3.54275C14.0898 3.57223 14.0829 3.60425 14.083 3.63662C14.0924 3.77297 14.1167 3.91272 14.1261 4.04906L14.1362 4.10383C14.1251 4.08976 14.1134 4.07618 14.1011 4.06315C13.8328 3.78387 14.2243 4.01748 14.05 3.80183C13.9025 3.6414 13.8594 3.59027 13.733 3.49369C13.6697 3.45324 13.6314 3.37575 13.6106 3.50755C13.6023 3.62344 13.5936 3.75774 13.6016 3.85545C13.6009 3.90976 13.6578 4.01202 13.7067 4.07201ZM7.09863 6.12375C7.09565 6.17419 7.23944 6.23555 7.24816 6.35235C7.2688 6.40052 7.21742 6.55459 7.26008 6.56891C7.2993 6.58504 7.35388 6.46233 7.37452 6.34826C7.38599 6.28577 7.32521 6.06739 7.22201 6.02831C7.20593 6.02463 7.1894 6.02333 7.17293 6.02444C7.12317 6.02763 7.07868 6.05421 7.09863 6.12375Z" fill="white"/>
<path d="M14.1371 5.27884C14.1334 5.27815 14.1296 5.27846 14.1261 5.27975C14.1261 5.27975 13.5144 5.71082 13.4993 5.72582C13.4385 5.77922 13.469 5.96715 13.4993 5.94533C13.5431 5.96192 14.1589 5.54858 14.1472 5.50017C14.174 5.50199 14.1868 5.28771 14.1371 5.27884ZM15.262 4.29604C15.2835 4.36148 15.2294 4.57259 15.2739 4.59213C15.3149 4.61394 15.3727 4.44624 15.3943 4.29104C15.4062 4.20605 15.3427 3.90791 15.2349 3.85474C15.2264 3.85244 15.2176 3.85107 15.2088 3.85065C15.1471 3.84861 15.0799 3.89496 15.1065 3.98586C15.0909 4.03562 15.2381 4.20401 15.262 4.29604ZM13.7929 5.28384C13.7951 5.16068 13.8071 4.99707 13.814 4.89526C13.8169 4.85686 13.8259 4.8146 13.863 4.80482C13.9002 4.79528 13.9646 4.84186 13.9653 4.80187C13.9584 4.72347 13.9428 4.60804 13.8981 4.5535C13.8869 4.53749 13.8721 4.5243 13.8549 4.51499C13.8377 4.50568 13.8184 4.5005 13.7988 4.49987C13.7341 4.49669 13.6651 4.53827 13.6475 4.62599C13.6477 4.6778 13.6711 4.7062 13.6665 4.75324C13.6596 4.78005 13.6319 4.79778 13.5651 4.76619C13.5754 4.75665 13.522 4.68166 13.522 4.68166C13.47 4.6503 13.4007 4.68325 13.3555 4.71257C13.3394 4.74307 13.3297 4.77653 13.3271 4.81088C13.3245 4.84524 13.329 4.87975 13.3404 4.91231C13.4151 5.04865 13.6708 5.28157 13.7929 5.28384ZM11.1915 6.0869L11.1924 6.08599L11.1934 6.08508L11.1943 6.08418V6.08213C11.1945 6.07877 11.1942 6.0754 11.1934 6.07213L11.1351 6.03827L9.98889 6.03327C9.9778 6.02942 9.96731 6.02407 9.9577 6.01737L9.95564 6.01532L9.95472 6.01441L9.9538 6.0135L9.95288 6.01146L9.95197 6.01055V6.00964L9.95105 6.00873V6.00146L9.95197 6.00055C9.95231 5.99989 9.95262 5.99921 9.95288 5.99851C9.95839 5.99101 9.97192 5.98396 9.98889 5.9776C10.2625 5.94056 10.7489 5.86171 10.7812 5.39837C10.7762 5.15704 10.6771 4.99889 10.3781 4.95526C10.1584 4.97207 10.0017 5.18249 10.027 5.41428C10.0164 5.47677 10.0483 5.59925 9.98384 5.61311C9.56256 5.65129 9.10274 5.91284 9.08738 6.10008H9.08646L9.08554 6.10099C9.08489 6.10138 9.0842 6.10168 9.08348 6.1019H9.08141L9.07843 6.10281H9.07247L9.06857 6.1019C9.04105 6.0944 9.00596 6.04964 9.01147 5.98669C8.99541 5.6631 8.88923 5.29679 8.72273 5.01479C8.66334 4.95594 8.63742 4.93208 8.62045 4.92935H8.61265C8.61082 4.93003 8.60921 4.9314 8.60761 4.9323L8.60463 4.93435C8.59179 4.94389 8.57642 4.96616 8.54248 4.99002C8.48515 5.05479 8.47483 5.09978 8.47827 5.22953C8.48148 5.24317 8.5872 5.53449 8.67687 5.73923C8.73718 5.95215 8.79314 6.19575 8.75209 6.42594C8.61059 6.73021 8.32645 7.00313 8.05216 7.15129C7.9125 7.1956 7.79164 7.1806 7.7593 7.15038L7.75839 7.14947C7.67812 7.09607 7.67628 7.00085 7.6811 6.98449V6.98359L7.68202 6.98268C7.91342 6.82293 8.17807 6.69363 8.38493 6.26233C8.44616 6.09758 8.46473 5.99851 8.40396 5.74355C8.38034 5.64856 8.35098 5.57039 8.28562 5.50313L8.28654 5.50222C8.32599 5.48358 8.42827 5.55812 8.44409 5.51108C8.41978 5.38928 8.33677 5.2259 8.24251 5.1425C8.15995 5.06819 8.07028 5.05956 7.99483 5.1275C7.90975 5.17431 7.89163 5.3427 7.93268 5.49017C7.97809 5.60107 8.10101 5.62061 8.18839 5.84399V5.84489C8.19022 5.85898 8.21843 6.01169 8.1744 6.0735C8.13862 6.18393 7.67949 6.54274 7.64693 6.56433C7.64647 6.56478 7.64418 6.56592 7.64395 6.56638L7.64303 6.56728L7.64211 6.56819L7.6412 6.5691H7.63936L7.63844 6.56819V6.56728L7.63753 6.56524C7.63615 6.55638 7.63867 6.53343 7.63753 6.49661C7.63455 6.42935 7.66252 6.27733 7.66069 6.2512V6.25029L7.65977 6.24938V6.24847H7.65885C7.50704 6.3455 7.45681 6.64318 7.42929 6.73135C7.04493 6.99449 6.6085 7.19014 6.35715 7.4567C6.2262 7.65916 7.25912 7.224 7.37907 7.17151L7.38205 7.17447C7.40475 7.19923 7.40682 7.28604 7.47539 7.36421C7.58272 7.50828 7.8109 7.59713 8.0329 7.54214C8.40534 7.40875 8.61976 7.15742 8.83832 6.87837C8.86951 6.83338 8.91836 6.79793 8.96376 6.8327C9.11375 7.1656 9.5465 7.40261 10.1061 7.42693C10.2357 7.27104 10.1737 7.19424 10.1212 7.16151C10.1049 7.15083 9.84303 7.04971 9.80221 6.94882C9.77653 6.85497 9.8389 6.7718 9.96366 6.70931C10.3228 6.66636 10.676 6.61841 11.0177 6.50957C11.0211 6.39572 11.0888 6.22575 11.134 6.15189C11.1638 6.09917 11.1839 6.09417 11.1915 6.0869ZM10.2462 5.3736C10.247 5.37006 10.2484 5.36668 10.2503 5.3636C10.251 5.36247 10.2515 5.36065 10.2524 5.35951L10.2533 5.3586C10.2549 5.35683 10.2566 5.35516 10.2584 5.3536C10.2669 5.34738 10.2769 5.3436 10.2875 5.3427C10.319 5.34144 10.3501 5.34976 10.3767 5.36656C10.4223 5.39269 10.4505 5.43223 10.4469 5.46086V5.46382L10.4448 5.46677L10.4439 5.46972L10.443 5.47177L10.4421 5.47381C10.4403 5.47636 10.4383 5.47872 10.4361 5.48086C10.4141 5.50108 10.3634 5.49836 10.3157 5.47086C10.2705 5.44495 10.2425 5.40519 10.2455 5.37656C10.2453 5.37587 10.246 5.37428 10.2462 5.3736ZM9.78799 6.51116C9.66507 6.55297 9.54673 6.58546 9.54627 6.76157C9.56233 6.84883 9.55912 6.89451 9.54536 6.91564C9.54411 6.91741 9.54273 6.91908 9.54123 6.92064L9.54031 6.92155L9.53939 6.92246L9.53848 6.92337L9.53756 6.92428L9.53549 6.92518C9.5336 6.92635 9.53161 6.92734 9.52953 6.92814C9.52793 6.92882 9.5254 6.92882 9.52357 6.92905C9.49422 6.93337 9.45179 6.90564 9.42037 6.88928C9.34446 6.83543 9.13164 6.70476 9.10137 6.42412C9.09701 6.36072 9.14494 6.30619 9.22177 6.30096H9.23484C9.36258 6.33527 9.55086 6.33891 9.71415 6.35573C9.84693 6.36459 9.91252 6.46775 9.78799 6.51116Z" fill="white"/>
<path d="M9.40942 5.41205C9.54152 5.47431 9.85594 5.43772 9.77957 5.23616C9.77828 5.2033 9.77591 5.17048 9.77246 5.13777C9.75893 5.10664 9.73416 5.09482 9.71031 5.09891C9.68646 5.103 9.66352 5.12254 9.65527 5.15458C9.64999 5.17572 9.66536 5.21049 9.64632 5.22117C9.63532 5.2323 9.59243 5.22571 9.59426 5.16754C9.59426 5.1489 9.5805 5.12868 9.57225 5.11686C9.56399 5.11141 9.55918 5.10982 9.54404 5.10982C9.52569 5.1105 9.52501 5.11527 9.51492 5.13072C9.51056 5.1464 9.50482 5.16163 9.50482 5.17935C9.50253 5.20003 9.49519 5.20708 9.47983 5.21026C9.46263 5.21026 9.46676 5.21208 9.45277 5.20321C9.44451 5.19435 9.43373 5.19072 9.43373 5.17549C9.43385 5.15798 9.43114 5.14057 9.4257 5.12391C9.41837 5.11436 9.40575 5.11027 9.39268 5.10709C9.32067 5.10732 9.31631 5.18844 9.32044 5.21935C9.31471 5.22503 9.31104 5.3716 9.40942 5.41205ZM14.1713 10.8489C14.0924 10.8608 13.8713 10.8828 13.8713 10.8828C13.6156 10.8526 13.4278 10.8496 13.1402 10.8392C13.1668 10.8058 13.2136 10.6706 13.1563 10.6215C13.1414 10.6092 13.1189 10.6024 13.0882 10.6047H13.0852L13.0843 10.6038C13.0834 10.6035 13.082 10.6033 13.0813 10.6028C13.0794 10.6014 13.0777 10.5997 13.0762 10.5979L13.0742 10.5958C13.0597 10.5749 13.0517 10.5233 13.0421 10.5104L13.0412 10.5095L13.0402 10.5085L13.0382 10.5076H13.0363L13.0354 10.5085C12.8451 10.5569 12.851 10.7526 12.9733 10.8385C10.9645 10.8385 7.88183 10.8046 7.22066 10.8046C6.85074 10.8046 5.68068 10.761 5.6582 10.761C5.90909 11.1246 6.27259 11.1987 6.74846 11.2062C7.6408 11.2062 11.7748 11.1953 12.9513 11.1953C12.8676 11.3425 12.9588 11.5793 13.0244 11.6225L13.0295 11.6254L13.0375 11.6284H13.0405C13.1184 11.6466 13.1526 11.5907 13.1788 11.55C13.3051 11.5611 14.0163 11.5711 14.0814 11.5491L14.0823 11.5482C14.1264 11.6122 14.1699 11.6729 14.2539 11.6625C14.4004 11.6313 14.516 11.6154 14.5197 11.3207C14.5194 11.32 14.5043 10.8174 14.1713 10.8489ZM14.028 11.3875C14.0263 11.3883 14.0247 11.389 14.0229 11.3895H14.0151C13.9197 11.3873 13.8647 11.385 13.7693 11.3825C13.7692 11.3778 13.7685 11.3732 13.7672 11.3686C13.7445 11.3023 13.581 11.3068 13.5425 11.3586L13.5404 11.3616L13.5384 11.3657C13.5376 11.3673 13.5369 11.369 13.5363 11.3707C13.5356 11.3727 13.5356 11.3755 13.5354 11.3777C13.5351 11.38 13.5342 11.3832 13.5345 11.3857C13.4058 11.4009 13.29 11.3814 13.1613 11.3768C13.1235 11.3302 13.1281 11.2459 13.1723 11.2257H13.1733C13.4663 11.2398 13.7418 11.2284 14.0346 11.2425C14.0814 11.2816 14.0583 11.3711 14.028 11.3875ZM10.5873 7.35312C10.5873 7.35811 10.6389 7.40197 10.6997 7.36698C10.8276 7.31858 10.9074 7.27154 11.0868 7.23291C11.1338 7.232 11.131 7.10724 11.0567 7.1027C10.9597 7.10747 10.8701 7.11247 10.7728 7.18814C10.7132 7.20177 10.7029 7.16587 10.6896 7.13338C10.6744 7.05316 10.7237 6.99681 10.7136 6.93659C10.7164 6.93931 10.6836 6.91 10.6414 6.90773C10.6262 6.90681 10.611 6.90986 10.5974 6.91659C10.5944 6.91659 10.4623 7.00499 10.4199 7.06657C10.394 7.08611 10.3969 7.10315 10.405 7.13701C10.4251 7.18314 10.4607 7.1686 10.5013 7.14701C10.5549 7.13974 10.5809 7.17451 10.5765 7.23836C10.5515 7.31857 10.5873 7.34812 10.5873 7.35312ZM15.0162 7.3213C14.9912 7.2929 14.9348 7.30994 14.8969 7.3054C14.8788 7.3054 14.8196 7.29676 14.8478 7.24472C14.8715 7.21245 14.88 7.19314 14.896 7.15337C14.9139 7.11451 14.8983 7.08816 14.8339 7.06702C14.8078 7.06179 14.7813 7.05943 14.7547 7.05998C14.7309 7.06066 14.7059 7.06407 14.6694 7.06702C14.6302 7.0752 14.6165 7.09225 14.6093 7.13951C14.6121 7.21109 14.6564 7.20746 14.7015 7.23586C14.7277 7.26881 14.7449 7.29881 14.6995 7.35312C14.6566 7.39197 14.6261 7.41356 14.5832 7.45242C14.563 7.48673 14.5504 7.53922 14.6123 7.55581C14.7268 7.58762 14.9914 7.4172 14.9914 7.41379C15.0338 7.38197 15.0196 7.3213 15.0162 7.3213ZM12.9712 6.98294C13.0632 6.98363 13.1696 6.77457 13.215 6.56755C13.24 6.2826 13.1985 6.10899 13.1909 5.94151C13.1836 5.77404 12.9994 4.4147 12.9623 4.2879C12.9173 4.04816 13.1411 4.25631 13.1166 4.11701C13.0393 3.94136 12.8462 3.68549 12.7857 3.53278C12.763 3.49188 12.7602 3.45416 12.7416 3.45734C12.7304 3.45916 12.7141 3.47597 12.6834 3.51597C12.6079 3.76048 12.5813 3.96022 12.6102 4.11224C12.8043 5.11482 13.0029 6.02832 12.9712 6.98294Z" fill="white"/>
<path d="M15.8378 4.32764C15.829 4.26447 15.8008 4.11904 15.8116 4.10018C15.829 4.05564 15.9176 4.10472 15.949 4.05336C15.9951 4.00655 15.7203 3.65797 15.624 3.5089C15.6047 3.47141 15.5931 3.44073 15.5759 3.44232C15.5626 3.44368 15.5465 3.46482 15.5217 3.51685C15.4621 3.61343 15.4417 3.78636 15.4655 3.93929C15.6089 4.89983 15.7153 5.82969 15.7373 6.68092C15.7249 6.76182 15.7215 6.80477 15.6832 6.90657C15.5986 7.01405 15.5052 7.14858 15.4174 7.21357C15.3295 7.27856 15.1426 7.34037 15.0814 7.38854C14.8874 7.49966 14.8865 7.62737 15.0433 7.63191C15.3135 7.60078 15.6334 7.57897 15.8536 7.24924C15.9125 7.15699 15.982 6.90657 15.985 6.75341C16.0056 5.85514 15.9735 4.97686 15.8378 4.32764ZM14.0512 6.44755C14.0923 6.46936 14.2005 6.33756 14.1966 6.17236C14.2086 6.08737 14.1661 5.77424 14.0583 5.72129C14.0456 5.7178 14.0323 5.7168 14.0191 5.71834C13.9627 5.72516 13.9093 5.7781 13.9338 5.86241C13.9182 5.91195 14.0102 6.08533 14.034 6.17736C14.0556 6.24281 14.0065 6.428 14.0512 6.44755ZM5.53973 3.78818C5.67183 3.85044 5.91928 3.82408 5.90873 3.6132C5.90873 3.59457 5.9046 3.53185 5.90277 3.51481C5.88924 3.4839 5.86447 3.47209 5.84085 3.47618C5.817 3.48027 5.79406 3.49981 5.78581 3.53185C5.78053 3.55298 5.79498 3.58775 5.77572 3.59843C5.76471 3.60934 5.72274 3.60207 5.72458 3.54367C5.72458 3.52503 5.71082 3.50572 5.70256 3.4939C5.6943 3.48845 5.68857 3.48686 5.67343 3.48686C5.65509 3.48754 5.65532 3.49231 5.64523 3.50776C5.64064 3.52344 5.63491 3.53867 5.63491 3.55639C5.63261 3.57707 5.62413 3.58412 5.60876 3.5873C5.59156 3.5873 5.59569 3.58912 5.5817 3.58025C5.57344 3.57139 5.56358 3.56776 5.56358 3.55253C5.56343 3.53497 5.56041 3.51755 5.55464 3.50095C5.5473 3.4914 5.53583 3.4864 5.52253 3.483C5.45052 3.48322 5.44525 3.56526 5.44938 3.59639C5.4441 3.60207 5.44158 3.74773 5.53973 3.78818ZM7.53402 4.47103C7.51184 4.4708 7.49012 4.47739 7.47187 4.48989C7.35514 4.55238 7.30996 4.73803 7.38266 4.84665C7.45054 4.94232 7.55787 4.90733 7.57209 4.90733C7.68653 4.92141 7.75464 4.69463 7.75464 4.69463C7.75464 4.69463 7.75808 4.63078 7.62232 4.75121C7.56521 4.76189 7.55741 4.74144 7.5432 4.7094C7.52954 4.64972 7.5359 4.58725 7.56131 4.53147C7.5737 4.49625 7.56108 4.47375 7.53402 4.47103ZM12.2815 6.77818C12.0691 6.99769 11.7632 7.26856 11.4299 7.39331C11.3942 7.43308 11.5192 7.60305 11.6806 7.60305C11.9508 7.57192 12.1884 7.42172 12.4087 7.02564C12.4677 6.93338 12.5711 6.73569 12.5741 6.58253C12.5947 5.68425 12.5285 4.98595 12.3925 4.33673C12.3838 4.27356 12.3897 4.1988 12.4005 4.17971C12.4179 4.15903 12.4773 4.18016 12.5087 4.12903C12.5548 4.08222 12.3854 3.69478 12.289 3.54571C12.2698 3.50822 12.2581 3.47845 12.2409 3.48004C12.2276 3.48141 12.2115 3.50163 12.1868 3.55367C12.1271 3.65024 12.0868 3.8184 12.0913 3.9761C12.2202 4.86051 12.2599 5.63449 12.3441 6.51913C12.3514 6.60434 12.3388 6.72864 12.2815 6.77818ZM4.93177 5.45202C4.61483 5.4577 4.15066 5.86377 4.1385 6.08896C4.47287 5.9299 4.80151 5.77674 5.14138 5.61199C5.08657 5.53087 5.13817 5.45792 4.93177 5.45202ZM4.31715 7.11835C4.2339 7.28606 4.19905 7.1713 4.19171 7.07768C4.17886 6.89998 4.19629 6.73637 4.21579 6.60661C4.22611 6.54026 4.22588 6.51685 4.21785 6.51708C4.20982 6.51731 4.194 6.54094 4.17267 6.56776C3.98416 6.86544 3.96742 7.30969 4.07131 7.44217C4.12658 7.50489 4.21762 7.53238 4.28482 7.51261C4.40338 7.46171 4.45544 7.22402 4.42723 7.13699C4.38802 7.07586 4.3566 7.06632 4.31715 7.11835Z" fill="white"/>
<path d="M4.35283 5.18051C4.73811 5.2171 4.52529 4.53516 4.66473 4.41131C4.6911 4.35018 4.73995 4.34905 4.74385 4.42631V5.00554C4.74041 5.19392 4.86539 5.24982 4.9624 5.28868C5.06331 5.28095 5.13028 5.28368 5.16995 5.38116L5.21811 6.38374C5.21811 6.38374 5.45157 6.45032 5.46281 5.82019C5.47405 5.45025 5.38851 5.13984 5.43873 5.06803C5.44056 4.99736 5.53184 4.99372 5.59514 5.02826C5.69581 5.09871 5.74053 5.18528 5.89694 5.15052C6.13499 5.08553 6.27855 4.971 6.28199 4.78989C6.268 4.61764 6.24805 4.4454 6.1726 4.27315C6.18315 4.24179 6.12696 4.16044 6.13751 4.12908C6.1804 4.19543 6.24507 4.18998 6.25998 4.12908C6.21938 3.99683 6.15632 3.87003 6.05449 3.81504C5.97033 3.74141 5.84694 3.75709 5.80177 3.91048C5.7809 4.08727 5.86644 4.29678 5.99624 4.46789C6.02376 4.5347 6.06252 4.64605 6.04532 4.74603C5.97629 4.78512 5.90772 4.76876 5.8497 4.70831C5.8497 4.70831 5.66004 4.56765 5.66004 4.53629C5.71026 4.21725 5.67082 4.18066 5.64307 4.09204C5.62357 3.96979 5.56509 3.93116 5.51762 3.84753C5.47015 3.79777 5.40594 3.79777 5.3752 3.84753C5.2915 3.99137 5.33071 4.30042 5.39126 4.43881C5.43506 4.56606 5.50203 4.64559 5.47038 4.64559C5.44446 4.71763 5.39011 4.70081 5.35112 4.61787C5.29517 4.44631 5.28393 4.19066 5.28393 4.07523C5.26719 3.93229 5.24838 3.62711 5.15367 3.54962C5.12844 3.51554 5.0984 3.50349 5.0695 3.5069C5.03212 3.51122 4.99703 3.54122 4.98029 3.58144C4.9741 3.72323 4.97318 3.86503 4.98923 3.99569C5.05437 4.22498 5.07501 4.42676 5.10665 4.6615C5.11537 4.976 4.92342 4.79762 4.93213 4.64173C4.97639 4.43926 4.96447 4.12045 4.92502 4.03955C4.89383 3.95865 4.8576 3.93888 4.78169 3.95206C4.72137 3.94843 4.56543 4.11658 4.52185 4.39518C4.52185 4.39518 4.48562 4.53811 4.46979 4.66536C4.44847 4.80921 4.35237 4.91124 4.28518 4.64559C4.22716 4.45244 4.19161 3.97683 4.0946 4.08818C4.06731 4.45994 4.03429 5.11348 4.35283 5.18051Z" fill="white"/>
<path d="M4.48186 3.78003C4.50204 3.83002 4.46191 3.99068 4.50388 4.00567C4.54264 4.02226 4.59584 3.89433 4.61625 3.77616C4.62749 3.7114 4.619 3.48961 4.46673 3.44417C4.45882 3.44237 4.45075 3.44138 4.44265 3.44121C4.38439 3.43962 4.32041 3.4753 4.34541 3.54461C4.33096 3.5821 4.45939 3.70981 4.48186 3.78003ZM6.68141 6.67118C6.81878 6.21807 6.67865 5.87653 6.72452 5.83449L6.72658 5.83358L6.72865 5.83267L6.73071 5.83176C6.73266 5.83122 6.73466 5.83091 6.73667 5.83085C6.90615 6.01173 7.14397 5.8538 7.19603 5.79108C7.21828 5.75973 7.27423 5.7395 7.31345 5.78018C7.44555 5.87425 7.6774 5.82994 7.72556 5.66383C7.75354 5.50158 7.77716 5.33434 7.78267 5.16095C7.69667 5.18754 7.62718 5.20731 7.5992 5.2364C7.5926 5.24293 7.58806 5.25122 7.58613 5.26026C7.57856 5.3082 7.57145 5.35638 7.56411 5.40432C7.56333 5.40812 7.56202 5.4118 7.56021 5.41523C7.55616 5.42144 7.55065 5.42658 7.54416 5.43023C7.51366 5.44659 7.46068 5.43727 7.45793 5.39342C7.41688 5.2089 7.24855 5.18504 7.14604 5.47091C7.07724 5.52612 6.95156 5.53703 6.93849 5.45409C6.95523 5.2623 6.87726 5.2364 6.72085 5.32684C6.67063 4.94689 6.62063 4.58399 6.57041 4.20405C6.63554 4.20223 6.69539 4.24905 6.75502 4.17519C6.69058 3.97659 6.55412 3.5721 6.4773 3.53415L6.47523 3.53324C6.47045 3.52775 6.46506 3.5228 6.45918 3.51847C6.45755 3.51741 6.45587 3.51642 6.45414 3.51552C6.45115 3.51393 6.44726 3.51257 6.44404 3.51143C6.43724 3.50928 6.43004 3.50858 6.42295 3.50938C6.40391 3.51188 6.38258 3.52256 6.35781 3.52825C6.27594 3.55415 6.19934 3.62414 6.22342 3.76071C6.3202 4.34358 6.38327 4.78851 6.48005 5.3716C6.49496 5.43977 6.43716 5.52976 6.36286 5.52067C6.23627 5.43568 6.20485 5.26389 5.98882 5.27116C5.83241 5.27298 5.65399 5.44159 5.63174 5.60407C5.6056 5.73314 5.59643 5.87312 5.63174 5.9856C5.74159 6.11649 5.87323 6.10263 5.98882 6.07309C6.08376 6.03446 6.16196 5.94174 6.19545 5.96379H6.19636V5.96469C6.217 6.0006 6.1943 6.30373 5.74916 6.53802C5.47557 6.65982 5.2577 6.6889 5.14051 6.46757C5.06781 6.32919 5.14578 5.80222 4.9669 5.92402C4.43829 7.2745 6.20554 7.46288 6.40299 5.97969C6.41584 5.93788 6.45482 5.89584 6.48211 5.90607C6.49427 5.91107 6.50528 5.92743 6.50917 5.95765C6.46812 7.30063 5.14189 7.39266 4.91668 6.97022C4.86072 6.87069 4.84398 6.64891 4.83848 6.5162C4.82839 6.43576 4.80797 6.3894 4.78435 6.37122C4.73069 6.33123 4.65845 6.43553 4.64285 6.61664C4.62038 6.7623 4.6268 6.8023 4.6268 6.9425C4.69721 8.00325 6.40391 7.54741 6.68141 6.67118ZM6.02207 5.75336V5.75427L6.02115 5.75632C6.00785 5.77336 5.96107 5.76631 5.92781 5.76631C5.88768 5.7645 5.86773 5.75791 5.84365 5.72564C5.83218 5.68951 5.86727 5.65406 5.88286 5.62725L5.88378 5.62634C5.88582 5.62341 5.88821 5.62074 5.89089 5.61838C5.90648 5.60526 5.92562 5.59696 5.94593 5.59452C5.95029 5.59407 5.95442 5.59339 5.959 5.59361C5.98996 5.59407 6.02276 5.60907 6.04019 5.65224C6.04648 5.66918 6.04812 5.68746 6.04494 5.70523C6.04176 5.723 6.03386 5.73961 6.02207 5.75336ZM11.6658 4.74033C11.7978 4.8026 12.0462 4.77533 12.0359 4.56445C12.0346 4.53159 12.0322 4.49877 12.0288 4.46606C12.0153 4.43493 11.9905 4.42311 11.9666 4.4272C11.9428 4.43129 11.9199 4.45174 11.9116 4.48378C11.9063 4.50492 11.9217 4.53877 11.9027 4.54945C11.8916 4.56059 11.8488 4.554 11.8506 4.49583C11.8506 4.47719 11.8368 4.45697 11.8286 4.44515C11.8203 4.4397 11.8146 4.43811 11.7995 4.43811C11.7811 4.43879 11.7816 4.44356 11.7715 4.45901C11.7671 4.47469 11.7614 4.48992 11.7614 4.50764C11.7591 4.52832 11.7518 4.53537 11.7364 4.53855C11.7192 4.53855 11.7222 4.54036 11.7084 4.5315C11.7002 4.52264 11.6903 4.519 11.6903 4.50378C11.6901 4.48622 11.6871 4.4688 11.6813 4.4522C11.674 4.44265 11.6625 4.43856 11.6492 4.43538C11.5772 4.43561 11.5729 4.51673 11.577 4.54764C11.571 4.55332 11.5674 4.69989 11.6658 4.74033ZM11.755 3.9225C11.802 4.05317 11.719 4.17769 11.768 4.19587C11.8132 4.2161 11.8758 4.06089 11.8994 3.91773C11.9267 3.80184 11.8433 3.56438 11.7249 3.51529C11.7157 3.51338 11.7063 3.51239 11.6969 3.51234C11.6293 3.51029 11.5545 3.55256 11.5837 3.63664C11.5665 3.68209 11.7286 3.83752 11.755 3.9225Z" fill="white"/>
<path d="M6.83432 4.55037H6.83524L6.83616 4.55128H6.83708L6.83799 4.55219C6.86299 4.56878 7.1719 4.56855 7.20607 4.5531L7.20699 4.55219H7.20791V4.55128C7.31409 4.51242 7.81771 3.94205 7.81771 3.94205C7.79156 3.92001 7.76748 3.90365 7.74134 3.88138C7.71336 3.85729 7.71634 3.83389 7.74134 3.8098C7.8661 3.73777 7.82665 3.57961 7.76152 3.5078C7.70763 3.48371 7.65672 3.47576 7.61108 3.47803C7.56544 3.4803 7.52508 3.49326 7.49068 3.51075C7.4033 3.5937 7.38266 3.72686 7.45169 3.8098C7.51866 3.84116 7.58562 3.90797 7.5409 3.94501C7.35124 4.14566 6.85772 4.48106 6.83295 4.54219L6.83203 4.54423V4.54719L6.83295 4.54923L6.83432 4.55037ZM7.58127 3.65619C7.58323 3.65577 7.58523 3.65547 7.58723 3.65528C7.61796 3.6521 7.65534 3.68027 7.67346 3.71981C7.69295 3.76208 7.68309 3.80253 7.65144 3.81025C7.61979 3.81798 7.57851 3.79003 7.55925 3.74754C7.53999 3.70504 7.54962 3.66391 7.58127 3.65619ZM10.5268 3.97182C10.7481 4.26528 10.9614 4.56451 11.1667 4.86919C11.199 5.09665 11.2226 5.31934 11.2378 5.5409C11.271 6.02696 11.2811 6.63187 11.2508 7.14384C11.3428 7.14748 11.49 6.99682 11.5416 6.77617C11.5751 6.47099 11.5297 5.84835 11.5265 5.66815C11.5242 5.59339 11.5196 5.50409 11.5146 5.41069C11.7654 5.81665 11.9986 6.23302 12.2136 6.65869C12.2966 6.6196 12.2783 6.15626 12.2296 6.09127C12.0473 5.70247 11.7955 5.31866 11.7152 5.17118C11.6863 5.11778 11.5875 4.96917 11.4705 4.79761C11.449 4.55287 11.4256 4.3454 11.4105 4.28291C11.3728 4.02409 11.5178 4.312 11.4976 4.16156C11.4506 3.90319 11.3066 3.72754 11.1366 3.49076C11.0818 3.41372 11.083 3.39804 10.9983 3.50962C10.9477 3.62324 10.9483 3.718 10.9633 3.80662C10.9353 3.7662 10.9056 3.72707 10.874 3.68936C10.7273 3.56461 10.7181 3.55779 10.5963 3.45576C10.5578 3.42872 10.4846 3.38714 10.4289 3.39214C10.3954 3.39509 10.3686 3.41463 10.3587 3.46372C10.3454 3.57915 10.3523 3.64187 10.3718 3.73799C10.3863 3.8023 10.4805 3.90956 10.5268 3.97182ZM10.9954 3.95432C11.0011 3.97932 11.0066 4.00432 11.0105 4.02977C11.0231 4.08476 11.0341 4.13952 11.0456 4.19361C11.0118 4.146 10.9763 4.09962 10.9392 4.05454C10.8291 3.92501 10.9415 3.96955 10.9954 3.95432Z" fill="white"/>
<path d="M8.27919 4.88504C8.4333 4.94822 8.531 4.65758 8.59406 4.33944C8.63718 4.25014 8.6702 4.23991 8.69245 4.28582C8.68671 4.70893 8.72318 4.80324 8.8328 4.93163C9.07773 5.11887 9.28023 4.95526 9.29605 4.93958L9.48663 4.75075C9.52906 4.70643 9.58525 4.70393 9.6451 4.74279C9.70335 4.79528 9.69578 4.88572 9.82054 4.94844C9.92558 4.99003 10.1496 4.95867 10.2017 4.86891C10.2716 4.75006 10.2886 4.70916 10.3209 4.66417C10.3709 4.59827 10.4563 4.62758 10.4563 4.64826C10.4482 4.68507 10.398 4.7212 10.4322 4.78733C10.4916 4.83141 10.5053 4.80301 10.5404 4.79324C10.6647 4.73438 10.7581 4.46738 10.7581 4.46738C10.7636 4.36785 10.7065 4.37535 10.6698 4.3958C10.6221 4.42466 10.6191 4.43443 10.5714 4.46329C10.5106 4.47215 10.393 4.51192 10.3347 4.42261C10.2753 4.31513 10.2749 4.16538 10.2294 4.05699C10.2294 4.04903 10.1501 3.88656 10.2235 3.87611C10.2606 3.88292 10.3402 3.90337 10.3528 3.83725C10.3918 3.77294 10.2689 3.59047 10.1854 3.49843C10.1129 3.41958 10.0127 3.40981 9.91572 3.49048C9.84783 3.55252 9.85792 3.6216 9.84439 3.68727C9.82719 3.76271 9.8304 3.85588 9.90769 3.95564C9.97557 4.08812 10.0987 4.25809 10.0581 4.49828C10.0581 4.49828 9.98658 4.61258 9.86068 4.59759C9.80816 4.58622 9.72262 4.56373 9.67721 4.23082C9.64281 3.97882 9.68592 3.62592 9.57791 3.46071C9.5536 3.39845 9.53273 3.33778 9.49764 3.34255C9.47677 3.34528 9.45108 3.37186 9.41531 3.43594C9.38985 3.50298 9.27977 3.60433 9.35912 3.81361C9.42402 3.94632 9.45086 4.16174 9.42127 4.40193C9.37632 4.47011 9.366 4.49374 9.30683 4.56191C9.22381 4.65031 9.13414 4.62758 9.06512 4.59463C9.00067 4.55168 8.94999 4.52964 8.92063 4.39284C8.92591 4.17515 8.93875 3.81861 8.89862 3.74294C8.83945 3.62569 8.74175 3.66773 8.70002 3.70318C8.49958 3.88474 8.40051 4.19151 8.33996 4.43557C8.28446 4.61349 8.22507 4.56191 8.18356 4.4901C8.08219 4.39603 8.07508 3.66068 7.95285 3.78157C7.75745 4.33649 8.06568 4.94413 8.27919 4.88504Z" fill="white"/>
<path d="M9.14326 3.83959C9.21917 3.63666 9.2194 3.55008 9.22444 3.46396C9.21252 3.39829 9.18385 3.3667 9.15129 3.36966C9.11872 3.37238 9.08249 3.41011 9.0529 3.48305C9.02768 3.5385 8.99672 3.82777 9.00176 3.82777C8.98158 3.91389 9.09258 3.95025 9.14326 3.83959ZM8.35091 3.79209C8.39402 3.76073 8.4087 3.74051 8.42315 3.68779C8.44104 3.59917 8.32912 3.7296 8.3149 3.63121C8.28991 3.53963 8.36146 3.50214 8.42934 3.41351C8.43095 3.37193 8.43164 3.33784 8.40434 3.33693C8.39196 3.33648 8.37339 3.34352 8.34724 3.35875C8.28853 3.39783 8.17226 3.51782 8.16882 3.65575C8.16515 3.73369 8.15047 3.73347 8.20184 3.783C8.23877 3.83618 8.27592 3.83095 8.35091 3.79209Z" fill="white"/>
</svg>
