<svg width="24" height="25" viewBox="0 0 24 25" fill="none" xmlns="http://www.w3.org/2000/svg">
<g clip-path="url(#clip0_535_6414)">
<path d="M8.625 19.3936C8.52554 19.3936 8.43016 19.4331 8.35983 19.5034C8.28951 19.5737 8.25 19.6691 8.25 19.7686V22.0186H6.75C6.65054 22.0186 6.55516 22.0581 6.48483 22.1284C6.41451 22.1987 6.375 22.2941 6.375 22.3936C6.375 22.493 6.41451 22.5884 6.48483 22.6587C6.55516 22.729 6.65054 22.7686 6.75 22.7686H8.625C8.72446 22.7686 8.81984 22.729 8.89017 22.6587C8.96049 22.5884 9 22.493 9 22.3936V19.7686C9 19.6691 8.96049 19.5737 8.89017 19.5034C8.81984 19.4331 8.72446 19.3936 8.625 19.3936ZM16.125 22.3936C16.125 22.493 16.1645 22.5884 16.2348 22.6587C16.3052 22.729 16.4005 22.7686 16.5 22.7686H18.375C18.4745 22.7686 18.5698 22.729 18.6402 22.6587C18.7105 22.5884 18.75 22.493 18.75 22.3936V19.7686C18.75 19.6691 18.7105 19.5737 18.6402 19.5034C18.5698 19.4331 18.4745 19.3936 18.375 19.3936C18.2755 19.3936 18.1802 19.4331 18.1098 19.5034C18.0395 19.5737 18 19.6691 18 19.7686V22.0186H16.5C16.4005 22.0186 16.3052 22.0581 16.2348 22.1284C16.1645 22.1987 16.125 22.2941 16.125 22.3936ZM8.625 10.3936C8.52554 10.3936 8.43016 10.4331 8.35983 10.5034C8.28951 10.5737 8.25 10.6691 8.25 10.7686V13.0186H6.75C6.65054 13.0186 6.55516 13.0581 6.48483 13.1284C6.41451 13.1987 6.375 13.2941 6.375 13.3936C6.375 13.493 6.41451 13.5884 6.48483 13.6587C6.55516 13.729 6.65054 13.7686 6.75 13.7686H8.625C8.72446 13.7686 8.81984 13.729 8.89017 13.6587C8.96049 13.5884 9 13.493 9 13.3936V10.7686C9 10.6691 8.96049 10.5737 8.89017 10.5034C8.81984 10.4331 8.72446 10.3936 8.625 10.3936ZM11.625 5.89355C11.7245 5.89355 11.8198 5.85405 11.8902 5.78372C11.9605 5.71339 12 5.61801 12 5.51855V3.64355C12 3.5441 11.9605 3.44872 11.8902 3.37839C11.8198 3.30806 11.7245 3.26855 11.625 3.26855C11.5255 3.26855 11.4302 3.30806 11.3598 3.37839C11.2895 3.44872 11.25 3.5441 11.25 3.64355V5.51855C11.25 5.61801 11.2895 5.71339 11.3598 5.78372C11.4302 5.85405 11.5255 5.89355 11.625 5.89355ZM21.375 16.7686C21.2755 16.7686 21.1802 16.8081 21.1098 16.8784C21.0395 16.9487 21 17.0441 21 17.1436V19.0186C21 19.118 21.0395 19.2134 21.1098 19.2837C21.1802 19.354 21.2755 19.3936 21.375 19.3936C21.4745 19.3936 21.5698 19.354 21.6402 19.2837C21.7105 19.2134 21.75 19.118 21.75 19.0186V17.1436C21.75 17.0441 21.7105 16.9487 21.6402 16.8784C21.5698 16.8081 21.4745 16.7686 21.375 16.7686Z" fill="#A4A4A4"/>
<path d="M23.3059 15.6848L22.5 15.081V14.2752C22.5 13.8278 22.3753 13.3893 22.14 13.0088C21.9046 12.6283 21.5679 12.321 21.1676 12.1212C20.8913 11.9843 20.6589 11.7728 20.4967 11.5106C20.3346 11.2484 20.2491 10.946 20.25 10.6377V10.2657C20.433 10.1775 20.5837 10.0729 20.7776 9.87905C21.0141 9.64387 21.2016 9.36411 21.3293 9.05598C21.4569 8.74784 21.5222 8.41745 21.5212 8.08392C21.5212 7.41267 21.2576 6.77705 20.7772 6.29217L20.2751 5.7923C20.2751 5.7923 23.3167 4.13705 23.3422 4.11117C23.7664 3.6848 23.9996 3.1193 23.9996 2.51892C23.9996 1.91855 23.766 1.35305 23.3422 0.926671C22.92 0.502546 22.3579 0.268921 21.7594 0.268921C21.1609 0.268921 20.595 0.502546 20.1731 0.927046C20.1472 0.952921 18.5002 4.01892 18.5002 4.01892L17.9989 3.51755C17.6915 3.21008 17.3103 2.98674 16.8918 2.86894C16.4733 2.75114 16.0316 2.74282 15.609 2.8448C15.3244 2.30367 14.601 1.39392 12.9487 1.39392H8.4375C8.08814 1.39436 7.74367 1.47595 7.43123 1.63226C7.1188 1.78858 6.84695 2.01534 6.63713 2.29467C6.49726 2.48067 6.31609 2.63162 6.10791 2.73562C5.89972 2.83961 5.67022 2.89381 5.4375 2.89392C3.94987 2.89392 2.7315 4.05567 2.63438 5.51892H0.375C0.325772 5.51887 0.277017 5.52853 0.231522 5.54733C0.186027 5.56613 0.144685 5.59372 0.109858 5.62851C0.0750308 5.66331 0.0474026 5.70462 0.0285525 5.7501C0.00970235 5.79557 -2.46633e-08 5.84432 0 5.89355L0 23.8935C0 23.993 0.0395088 24.0884 0.109835 24.1587C0.180161 24.229 0.275544 24.2685 0.375 24.2685H19.875C19.9745 24.2685 20.0698 24.229 20.1402 24.1587C20.2105 24.0884 20.25 23.993 20.25 23.8935V23.4615L20.796 23.3712C21.2724 23.2912 21.7051 23.0453 22.0177 22.677C22.3291 22.3083 22.5 21.8412 22.5 21.3585C22.5002 21.1763 22.551 20.9977 22.6465 20.8425C22.7421 20.6874 22.8788 20.5617 23.0415 20.4795C23.3306 20.3368 23.5737 20.1158 23.7432 19.8415C23.9127 19.5673 24.0017 19.2509 24 18.9285V17.0723C24 16.533 23.7412 16.0148 23.3059 15.6848ZM18.5925 5.1713L19.1235 5.7023L17.7986 7.02717C17.7275 7.09618 17.6322 7.13476 17.5331 7.13476C17.434 7.13476 17.3388 7.09618 17.2676 7.02717C17.1974 6.95667 17.1579 6.8612 17.1579 6.76167C17.1579 6.66214 17.1974 6.56667 17.2676 6.49617L18.5925 5.1713ZM20.7424 1.41905C21.0177 1.16023 21.3819 1.01689 21.7598 1.01855C22.1572 1.01855 22.5304 1.1738 22.8109 1.4558C22.9505 1.59529 23.0611 1.76098 23.1365 1.94336C23.2118 2.12574 23.2504 2.32121 23.25 2.51855C23.2508 2.89921 23.1066 3.26591 22.8469 3.54417L19.7213 5.23955L19.0549 4.5728L20.7428 1.41942L20.7424 1.41905ZM17.4686 4.04742L18.0623 4.64105L16.737 5.96592C16.5799 6.12369 16.473 6.32445 16.4299 6.54287C16.3868 6.7613 16.4093 6.9876 16.4946 7.19325C16.5799 7.3989 16.7242 7.57468 16.9093 7.69842C17.0944 7.82216 17.312 7.88832 17.5346 7.88855C17.8331 7.88855 18.1151 7.77117 18.3285 7.55742L19.6541 6.23217L20.2459 6.8213C20.4122 6.987 20.5441 7.18388 20.6342 7.40067C20.7243 7.61745 20.7707 7.84987 20.7708 8.08463C20.7709 8.31938 20.7247 8.55184 20.6348 8.76871C20.5449 8.98557 20.4131 9.18257 20.247 9.34842C20.0674 9.52767 19.9781 9.57755 19.7396 9.66867L13.0684 12.2423C12.7448 12.3589 12.4455 12.2779 12.231 12.0634C12.1242 11.9567 12.0504 11.8215 12.0183 11.6739C11.9863 11.5264 11.9974 11.3727 12.0502 11.2313L14.5361 4.67705C14.6261 4.44113 14.7644 4.22666 14.9423 4.04742C15.1123 3.87583 15.3156 3.74071 15.5396 3.6503C15.8647 3.5204 16.2207 3.48878 16.5635 3.55938C16.9064 3.62997 17.2213 3.79967 17.4686 4.04742ZM0.75 6.26855H9.75V14.5185H0.75V6.26855ZM0.75 15.2685H9.75V23.5185H0.75V15.2685ZM19.5 23.5185H10.5V15.2685H19.5V23.5185ZM23.25 18.9285C23.2498 19.1108 23.199 19.2894 23.1035 19.4446C23.0079 19.5997 22.8712 19.7254 22.7085 19.8075C22.4194 19.9502 22.1763 20.1713 22.0068 20.4456C21.8373 20.7198 21.7483 21.0362 21.75 21.3585C21.7499 21.6638 21.642 21.9592 21.4451 22.1925C21.2473 22.4254 20.9736 22.5808 20.6722 22.6313L20.25 22.7014V14.8935C20.25 14.7941 20.2105 14.6987 20.1402 14.6284C20.0698 14.5581 19.9745 14.5185 19.875 14.5185H18.75V12.2685C18.75 12.1691 18.7105 12.0737 18.6402 12.0034C18.5698 11.9331 18.4745 11.8935 18.375 11.8935C18.2755 11.8935 18.1802 11.9331 18.1098 12.0034C18.0395 12.0737 18 12.1691 18 12.2685V14.5185H16.875V13.3935C16.875 13.2941 16.8355 13.1987 16.7652 13.1284C16.6948 13.0581 16.5995 13.0185 16.5 13.0185C16.4005 13.0185 16.3052 13.0581 16.2348 13.1284C16.1645 13.1987 16.125 13.2941 16.125 13.3935V14.5185H15V13.7685C15 13.6691 14.9605 13.5737 14.8902 13.5034C14.8198 13.4331 14.7245 13.3935 14.625 13.3935C14.5255 13.3935 14.4302 13.4331 14.3598 13.5034C14.2895 13.5737 14.25 13.6691 14.25 13.7685V14.5185H10.5V5.89355C10.5 5.79409 10.4605 5.69871 10.3902 5.62838C10.3198 5.55805 10.2245 5.51855 10.125 5.51855H9.75V4.01855C9.75 3.91909 9.71049 3.82371 9.64017 3.75338C9.56984 3.68305 9.47446 3.64355 9.375 3.64355C9.27554 3.64355 9.18016 3.68305 9.10983 3.75338C9.03951 3.82371 9 3.91909 9 4.01855V5.51855H7.875V4.39355C7.875 4.29409 7.83549 4.19871 7.76517 4.12838C7.69484 4.05805 7.59946 4.01855 7.5 4.01855C7.40054 4.01855 7.30516 4.05805 7.23483 4.12838C7.16451 4.19871 7.125 4.29409 7.125 4.39355V5.51855H3.38437C3.43163 5.00646 3.66829 4.53045 4.04803 4.18366C4.42776 3.83687 4.92324 3.64427 5.4375 3.64355C5.78686 3.64311 6.13133 3.56152 6.44377 3.4052C6.7562 3.24889 7.02805 3.02212 7.23787 2.7428C7.37774 2.5568 7.55891 2.40585 7.76709 2.30185C7.97528 2.19786 8.20478 2.14366 8.4375 2.14355H12.9487C14.1484 2.14355 14.688 2.74205 14.9126 3.13055C14.7326 3.2378 14.5642 3.3653 14.4124 3.51717C14.1598 3.7715 13.9634 4.07591 13.8356 4.4108L11.3494 10.9662C11.2621 11.1987 11.2325 11.449 11.263 11.6955C11.2935 11.942 11.3833 12.1775 11.5246 12.3818C11.6659 12.586 11.8546 12.753 12.0745 12.8685C12.2945 12.984 12.5391 13.0445 12.7875 13.0448C12.9671 13.0448 13.1423 13.0129 13.3312 12.9447L19.5 10.5649V10.6373C19.4986 11.085 19.6227 11.5242 19.8582 11.905C20.0937 12.2858 20.4312 12.5929 20.8324 12.7917C21.1079 12.9295 21.3396 13.1412 21.5017 13.4032C21.6637 13.6652 21.7497 13.9671 21.75 14.2752V15.2689C21.75 15.3271 21.7636 15.3846 21.7896 15.4366C21.8156 15.4887 21.8534 15.534 21.9 15.5689L22.8544 16.284C23.1019 16.4715 23.2496 16.7667 23.2496 17.0727V18.9289L23.25 18.9285Z" fill="#A4A4A4"/>
<path d="M5.25 22.7686C5.45711 22.7686 5.625 22.6007 5.625 22.3936C5.625 22.1864 5.45711 22.0186 5.25 22.0186C5.04289 22.0186 4.875 22.1864 4.875 22.3936C4.875 22.6007 5.04289 22.7686 5.25 22.7686Z" fill="#293336"/>
<path d="M15 22.7686C15.2071 22.7686 15.375 22.6007 15.375 22.3936C15.375 22.1864 15.2071 22.0186 15 22.0186C14.7929 22.0186 14.625 22.1864 14.625 22.3936C14.625 22.6007 14.7929 22.7686 15 22.7686Z" fill="#293336"/>
<path d="M5.25 13.7686C5.45711 13.7686 5.625 13.6007 5.625 13.3936C5.625 13.1864 5.45711 13.0186 5.25 13.0186C5.04289 13.0186 4.875 13.1864 4.875 13.3936C4.875 13.6007 5.04289 13.7686 5.25 13.7686Z" fill="#293336"/>
<path d="M11.625 7.39355C11.8321 7.39355 12 7.22566 12 7.01855C12 6.81145 11.8321 6.64355 11.625 6.64355C11.4179 6.64355 11.25 6.81145 11.25 7.01855C11.25 7.22566 11.4179 7.39355 11.625 7.39355Z" fill="#293336"/>
<path d="M21.7335 2.89355C21.9395 2.89355 22.1066 2.72566 22.1066 2.51855C22.1066 2.31145 21.9395 2.14355 21.7335 2.14355C21.5274 2.14355 21.3604 2.31145 21.3604 2.51855C21.3604 2.72566 21.5274 2.89355 21.7335 2.89355Z" fill="#293336"/>
</g>
<defs>
<clipPath id="clip0_535_6414">
<rect width="24" height="24" fill="white" transform="translate(0 0.268555)"/>
</clipPath>
</defs>
</svg>
