<svg width="28" height="27" viewBox="0 0 28 27" fill="none" xmlns="http://www.w3.org/2000/svg">
<path d="M2.26664 25.6014C2.04157 25.6014 1.82773 25.5113 1.67018 25.3538C1.45637 25.14 1.3664 24.8249 1.44517 24.5323L2.8631 19.232C1.91782 17.4765 1.42264 15.4959 1.42264 13.4928C1.42264 6.8196 6.84673 1.39551 13.5199 1.39551C20.1931 1.39551 25.6172 6.8196 25.6172 13.4928C25.6172 20.166 20.1931 25.5901 13.5199 25.5901C11.4831 25.5901 9.49128 25.0837 7.71326 24.1159L2.49172 25.5676C2.41295 25.5901 2.34541 25.6014 2.26664 25.6014ZM7.82577 22.3717C7.97206 22.3717 8.11836 22.4167 8.2534 22.4842C9.84011 23.4182 11.6631 23.9134 13.5199 23.9134C19.2591 23.9134 23.9292 19.2432 23.9292 13.5041C23.9292 7.76488 19.2591 3.09477 13.5199 3.09477C7.78075 3.09477 3.11064 7.76488 3.11064 13.5041C3.11064 15.3383 3.59452 17.1276 4.50603 18.7031C4.61857 18.8944 4.65235 19.1307 4.59608 19.3445L3.47075 23.5532L7.61195 22.4054C7.67947 22.3829 7.75825 22.3717 7.82577 22.3717Z" fill="white"/>
<path d="M16.6031 19.9858C15.9054 19.9858 15.1852 19.8283 14.4313 19.5019C13.7223 19.1981 13.0134 18.793 12.3269 18.2866C11.6517 17.7914 10.9878 17.2288 10.3801 16.6211C9.77243 16.0022 9.20972 15.3495 8.71457 14.6743C8.20817 13.9653 7.80305 13.2676 7.51046 12.5812C7.19537 11.8384 7.03784 11.107 7.03784 10.4093C7.03784 9.91413 7.12785 9.44149 7.29665 9.00261C7.4767 8.54123 7.76929 8.12485 8.15191 7.76475C8.87212 7.05579 9.90746 6.79699 10.729 7.19085C11.0103 7.31464 11.2466 7.5172 11.4267 7.78727L12.732 9.62153C12.867 9.80159 12.9684 9.99289 13.0471 10.1842C13.1372 10.4093 13.1934 10.6344 13.1934 10.8482C13.1934 11.1408 13.1146 11.4333 12.9571 11.6922C12.8558 11.861 12.7095 12.0635 12.5182 12.2548L12.3719 12.4124C12.4394 12.5024 12.5182 12.6149 12.642 12.7499C12.8783 13.02 13.1371 13.3126 13.4184 13.5939C13.6998 13.864 13.9811 14.1341 14.2624 14.3704C14.3975 14.483 14.5101 14.573 14.6001 14.6293L14.7576 14.4717C14.9601 14.2691 15.1627 14.1116 15.3653 14.0103C15.7367 13.774 16.3106 13.7178 16.817 13.9316C16.997 13.9991 17.1771 14.1004 17.3684 14.2354L19.2477 15.5633C19.5065 15.7433 19.7091 15.9909 19.8441 16.2722C19.9566 16.5536 20.0017 16.8012 20.0017 17.06C20.0017 17.3976 19.9229 17.7239 19.7766 18.039C19.6303 18.3316 19.4615 18.5904 19.2589 18.8268C18.8988 19.2206 18.4825 19.5132 18.0323 19.7045C17.5822 19.8958 17.0983 19.9858 16.6031 19.9858ZM9.90742 8.71002C9.8399 8.71002 9.61489 8.71002 9.33356 8.99135C9.11975 9.19391 8.97341 9.40774 8.87213 9.64406C8.77085 9.88038 8.72584 10.1505 8.72584 10.4205C8.72584 10.8932 8.83836 11.3995 9.06342 11.9397C9.29974 12.5024 9.64862 13.0988 10.0762 13.6953C10.5151 14.2917 11.0103 14.8881 11.5617 15.4395C12.1131 15.9797 12.6983 16.486 13.3059 16.9362C13.8911 17.3638 14.4875 17.7014 15.084 17.9602C15.9392 18.3316 16.7269 18.4216 17.3684 18.1515C17.5934 18.0615 17.796 17.904 17.9985 17.7014C18.0998 17.5889 18.1786 17.4763 18.2461 17.33C18.2799 17.2513 18.3024 17.1612 18.3024 17.0825C18.3024 17.06 18.3024 17.0262 18.2686 16.9587L16.3893 15.6533C16.3106 15.597 16.2318 15.552 16.1642 15.5295C16.1192 15.552 16.0518 15.5858 15.928 15.7096L15.5003 16.1372C15.174 16.4635 14.6563 16.5536 14.24 16.4073L14.0374 16.3173C13.7786 16.1822 13.486 15.9797 13.1596 15.6983C12.8445 15.4283 12.5407 15.1469 12.2144 14.8318C11.8993 14.5055 11.618 14.2016 11.3479 13.8865C11.0553 13.5377 10.8527 13.2564 10.7177 13.02L10.5939 12.7275C10.5602 12.6149 10.5489 12.4911 10.5489 12.3786C10.5489 12.0635 10.6614 11.7822 10.8753 11.5571L11.3029 11.1182C11.4267 10.9945 11.4717 10.9269 11.4942 10.8819C11.4604 10.8032 11.4154 10.7356 11.3591 10.6569L10.0425 8.80006L9.90742 8.71002Z" fill="white"/>
</svg>
