<svg width="155" height="155" viewBox="0 0 155 155" fill="none" xmlns="http://www.w3.org/2000/svg">
<g filter="url(#filter0_d_88_4996)">
<rect x="2" y="2.26855" width="150" height="150" rx="5" fill="white"/>
<path d="M14 28.5706V47.9665H38V28.5706H14ZM21.7551 43.843H15.4373V44.5777H21.7551V47.2318H14.7347V29.3053H21.7551L21.7551 43.843ZM29.5102 47.2318H22.4898V44.5777H29.5102V47.2318H29.5102ZM37.2653 47.2318H30.2449V44.5777H37.2653V47.2318H37.2653ZM37.2653 43.843H30.2449V42.3274H29.5102V43.843H22.4898V29.3053H29.5102V39.1238H30.2449V29.3053H37.2652V43.843H37.2653Z" fill="#A4A4A4"/>
<path d="M29.5104 39.9799H30.2451V40.7136H29.5104V39.9799ZM15.136 32.3358L16.9621 29.7282L17.5638 30.1496L15.7378 32.7572L15.136 32.3358ZM15.8427 33.6381L17.6688 31.0304L18.2706 31.4518L16.4445 34.0595L15.8427 33.6381ZM22.8911 32.3353L24.7172 29.7277L25.319 30.1491L23.4929 32.7568L22.8911 32.3353ZM23.5978 33.6388L25.424 31.0306L26.0259 31.452L24.1996 34.0602L23.5978 33.6388ZM30.6451 32.3364L32.4712 29.7288L33.073 30.1502L31.2469 32.7578L30.6451 32.3364ZM31.3523 33.6389L33.1785 31.0307L33.7804 31.4521L31.9542 34.0603L31.3523 33.6389Z" fill="#A4A4A4"/>
<path d="M22.0391 70.7842C21.9505 70.5029 21.8359 70.2712 21.6953 70.0889C21.5547 69.9014 21.3958 69.7555 21.2188 69.6514C21.0417 69.542 20.849 69.4665 20.6406 69.4248C20.4323 69.3831 20.2161 69.3623 19.9922 69.3623C19.5286 69.3623 19.0807 69.4456 18.6484 69.6123C18.2214 69.779 17.8411 70.042 17.5078 70.4014C17.1797 70.7555 16.9167 71.2113 16.7188 71.7686C16.5208 72.3258 16.4219 72.9925 16.4219 73.7686C16.4219 74.3727 16.487 74.9378 16.6172 75.4639C16.7474 75.9899 16.9583 76.4482 17.25 76.8389C17.5417 77.2295 17.9219 77.5394 18.3906 77.7686C18.8646 77.9925 19.4453 78.1045 20.1328 78.1045C20.5599 78.1045 20.9219 78.0837 21.2188 78.042C21.5208 77.9951 21.7891 77.9482 22.0234 77.9014H22.1328V73.4014H23.6172V78.8467C23.3568 78.93 23.0885 79.0107 22.8125 79.0889C22.5417 79.1618 22.2526 79.2269 21.9453 79.2842C21.638 79.3415 21.3125 79.3857 20.9688 79.417C20.6302 79.4535 20.2656 79.4717 19.875 79.4717C19.0156 79.4717 18.2682 79.3311 17.6328 79.0498C17.0026 78.7633 16.4792 78.3675 16.0625 77.8623C15.651 77.3571 15.3438 76.7581 15.1406 76.0654C14.9427 75.3727 14.8438 74.6175 14.8438 73.7998C14.8438 73.1279 14.9089 72.5186 15.0391 71.9717C15.1745 71.4248 15.3594 70.9378 15.5938 70.5107C15.8281 70.0785 16.1068 69.7061 16.4297 69.3936C16.7526 69.0758 17.1042 68.8154 17.4844 68.6123C17.8646 68.404 18.263 68.2503 18.6797 68.1514C19.1016 68.0524 19.5286 68.0029 19.9609 68.0029C20.3047 68.0029 20.6615 68.0446 21.0312 68.1279C21.401 68.2061 21.75 68.3441 22.0781 68.542C22.4115 68.7347 22.7109 68.9951 22.9766 69.3232C23.2422 69.6462 23.4453 70.0498 23.5859 70.5342L22.0391 70.7842ZM28.5469 79.417C27.9323 79.417 27.4583 79.3493 27.125 79.2139C26.7969 79.0732 26.5547 78.8597 26.3984 78.5732C26.2474 78.2816 26.1589 77.9118 26.1328 77.4639C26.1068 77.0107 26.0938 76.4717 26.0938 75.8467V69.4014H24.9062V68.2373H27.5703V76.2529C27.5703 76.6696 27.5755 77.0055 27.5859 77.2607C27.6016 77.516 27.6458 77.7139 27.7188 77.8545C27.7969 77.9951 27.9167 78.0889 28.0781 78.1357C28.2448 78.1826 28.4792 78.2061 28.7812 78.2061L28.5469 79.417ZM30.2969 72.0889C30.5052 71.9482 30.7292 71.8206 30.9688 71.7061C31.2135 71.5915 31.4635 71.4925 31.7188 71.4092C31.9792 71.3206 32.2396 71.2529 32.5 71.2061C32.7604 71.1592 33.013 71.1357 33.2578 71.1357C33.6328 71.1357 33.987 71.1852 34.3203 71.2842C34.6589 71.3779 34.9531 71.529 35.2031 71.7373C35.4583 71.9404 35.6589 72.2035 35.8047 72.5264C35.9505 72.8493 36.0234 73.2399 36.0234 73.6982V76.917C36.0234 77.2712 36.0312 77.5915 36.0469 77.8779C36.0625 78.1644 36.0833 78.4118 36.1094 78.6201C36.1354 78.8649 36.1667 79.0811 36.2031 79.2686H34.8828C34.8672 79.18 34.8516 79.016 34.8359 78.7764C34.8255 78.5368 34.8151 78.2686 34.8047 77.9717C34.6328 78.2633 34.4453 78.5029 34.2422 78.6904C34.0391 78.8727 33.8281 79.0186 33.6094 79.1279C33.3906 79.2373 33.1667 79.3128 32.9375 79.3545C32.7083 79.3962 32.4818 79.417 32.2578 79.417C31.8672 79.417 31.513 79.3649 31.1953 79.2607C30.8776 79.1514 30.6068 78.9951 30.3828 78.792C30.1641 78.5889 29.9948 78.3441 29.875 78.0576C29.7552 77.7712 29.6953 77.4482 29.6953 77.0889C29.6953 76.917 29.7135 76.7347 29.75 76.542C29.7917 76.3493 29.8568 76.1592 29.9453 75.9717C30.0339 75.7842 30.151 75.6045 30.2969 75.4326C30.4427 75.2607 30.6224 75.1071 30.8359 74.9717C31.0651 74.8258 31.3177 74.7139 31.5938 74.6357C31.8698 74.5524 32.1536 74.4925 32.4453 74.4561C32.7422 74.4144 33.0391 74.391 33.3359 74.3857C33.6328 74.3753 33.9193 74.3701 34.1953 74.3701H34.6172V73.792C34.6172 73.5055 34.5807 73.266 34.5078 73.0732C34.4349 72.8753 34.3333 72.7191 34.2031 72.6045C34.0729 72.4847 33.9219 72.3988 33.75 72.3467C33.5781 72.2946 33.3958 72.2686 33.2031 72.2686C32.9896 72.2686 32.7682 72.2946 32.5391 72.3467C32.3099 72.3936 32.0859 72.4561 31.8672 72.5342C31.6484 72.6123 31.4401 72.6982 31.2422 72.792C31.0495 72.8857 30.8776 72.9795 30.7266 73.0732L30.2969 72.0889ZM34.1406 77.6279C34.2396 77.5133 34.3177 77.3857 34.375 77.2451C34.4375 77.1045 34.4844 76.9456 34.5156 76.7686C34.5521 76.5915 34.5755 76.3936 34.5859 76.1748C34.6016 75.9561 34.6094 75.7087 34.6094 75.4326H34.3828C34.0234 75.4326 33.651 75.4456 33.2656 75.4717C32.8854 75.4977 32.5339 75.5654 32.2109 75.6748C31.8932 75.7842 31.6302 75.9535 31.4219 76.1826C31.2188 76.4066 31.1172 76.7165 31.1172 77.1123C31.1172 77.2581 31.1406 77.4014 31.1875 77.542C31.2344 77.6774 31.3073 77.7998 31.4062 77.9092C31.5104 78.0186 31.638 78.1071 31.7891 78.1748C31.9453 78.2425 32.1328 78.2764 32.3516 78.2764C32.7266 78.2764 33.0729 78.2217 33.3906 78.1123C33.7083 78.0029 33.9583 77.8415 34.1406 77.6279ZM38.3203 77.542C38.4766 77.6618 38.6484 77.7686 38.8359 77.8623C39.0234 77.9508 39.2188 78.0264 39.4219 78.0889C39.625 78.1514 39.8307 78.1982 40.0391 78.2295C40.2526 78.2607 40.4583 78.2764 40.6562 78.2764C40.8698 78.2764 41.0729 78.2529 41.2656 78.2061C41.4583 78.1592 41.625 78.0863 41.7656 77.9873C41.9115 77.8883 42.026 77.766 42.1094 77.6201C42.1979 77.4691 42.2422 77.2946 42.2422 77.0967C42.2422 76.9561 42.2161 76.8311 42.1641 76.7217C42.112 76.6071 42.0208 76.4977 41.8906 76.3936C41.7656 76.2894 41.5911 76.1878 41.3672 76.0889C41.1484 75.9847 40.8724 75.8701 40.5391 75.7451C40.1693 75.6097 39.8307 75.4743 39.5234 75.3389C39.2214 75.2035 38.9609 75.0498 38.7422 74.8779C38.5286 74.7008 38.362 74.4925 38.2422 74.2529C38.1224 74.0081 38.0625 73.7113 38.0625 73.3623C38.0625 72.9873 38.1406 72.6592 38.2969 72.3779C38.4531 72.0967 38.6615 71.8649 38.9219 71.6826C39.1875 71.5003 39.4922 71.3649 39.8359 71.2764C40.1797 71.1826 40.5365 71.1357 40.9062 71.1357C41.375 71.1357 41.8438 71.2061 42.3125 71.3467C42.7865 71.4873 43.2188 71.6982 43.6094 71.9795L43.1328 72.9795C42.9609 72.8701 42.7812 72.7738 42.5938 72.6904C42.4062 72.6019 42.2161 72.529 42.0234 72.4717C41.8307 72.4092 41.6406 72.3623 41.4531 72.3311C41.2708 72.2946 41.099 72.2764 40.9375 72.2764C40.7344 72.2764 40.5417 72.2972 40.3594 72.3389C40.1823 72.3805 40.026 72.443 39.8906 72.5264C39.7604 72.6045 39.6562 72.7061 39.5781 72.8311C39.5 72.9508 39.4609 73.0889 39.4609 73.2451C39.4609 73.391 39.4974 73.5238 39.5703 73.6436C39.6432 73.7633 39.7474 73.8753 39.8828 73.9795C40.0234 74.0785 40.1927 74.1748 40.3906 74.2686C40.5938 74.3623 40.8229 74.4535 41.0781 74.542C41.5521 74.7139 41.9557 74.8831 42.2891 75.0498C42.6224 75.2165 42.8932 75.3936 43.1016 75.5811C43.3099 75.7686 43.4609 75.9769 43.5547 76.2061C43.6484 76.43 43.6953 76.6904 43.6953 76.9873C43.6953 77.404 43.6042 77.766 43.4219 78.0732C43.2448 78.3805 43.0104 78.6331 42.7188 78.8311C42.4271 79.029 42.0938 79.1748 41.7188 79.2686C41.3438 79.3675 40.9583 79.417 40.5625 79.417C40.0625 79.417 39.5911 79.3519 39.1484 79.2217C38.7109 79.0863 38.2812 78.8779 37.8594 78.5967L38.3203 77.542ZM45.5234 77.542C45.6797 77.6618 45.8516 77.7686 46.0391 77.8623C46.2266 77.9508 46.4219 78.0264 46.625 78.0889C46.8281 78.1514 47.0339 78.1982 47.2422 78.2295C47.4557 78.2607 47.6615 78.2764 47.8594 78.2764C48.0729 78.2764 48.276 78.2529 48.4688 78.2061C48.6615 78.1592 48.8281 78.0863 48.9688 77.9873C49.1146 77.8883 49.2292 77.766 49.3125 77.6201C49.401 77.4691 49.4453 77.2946 49.4453 77.0967C49.4453 76.9561 49.4193 76.8311 49.3672 76.7217C49.3151 76.6071 49.224 76.4977 49.0938 76.3936C48.9688 76.2894 48.7943 76.1878 48.5703 76.0889C48.3516 75.9847 48.0755 75.8701 47.7422 75.7451C47.3724 75.6097 47.0339 75.4743 46.7266 75.3389C46.4245 75.2035 46.1641 75.0498 45.9453 74.8779C45.7318 74.7008 45.5651 74.4925 45.4453 74.2529C45.3255 74.0081 45.2656 73.7113 45.2656 73.3623C45.2656 72.9873 45.3438 72.6592 45.5 72.3779C45.6562 72.0967 45.8646 71.8649 46.125 71.6826C46.3906 71.5003 46.6953 71.3649 47.0391 71.2764C47.3828 71.1826 47.7396 71.1357 48.1094 71.1357C48.5781 71.1357 49.0469 71.2061 49.5156 71.3467C49.9896 71.4873 50.4219 71.6982 50.8125 71.9795L50.3359 72.9795C50.1641 72.8701 49.9844 72.7738 49.7969 72.6904C49.6094 72.6019 49.4193 72.529 49.2266 72.4717C49.0339 72.4092 48.8438 72.3623 48.6562 72.3311C48.474 72.2946 48.3021 72.2764 48.1406 72.2764C47.9375 72.2764 47.7448 72.2972 47.5625 72.3389C47.3854 72.3805 47.2292 72.443 47.0938 72.5264C46.9635 72.6045 46.8594 72.7061 46.7812 72.8311C46.7031 72.9508 46.6641 73.0889 46.6641 73.2451C46.6641 73.391 46.7005 73.5238 46.7734 73.6436C46.8464 73.7633 46.9505 73.8753 47.0859 73.9795C47.2266 74.0785 47.3958 74.1748 47.5938 74.2686C47.7969 74.3623 48.026 74.4535 48.2812 74.542C48.7552 74.7139 49.1589 74.8831 49.4922 75.0498C49.8255 75.2165 50.0964 75.3936 50.3047 75.5811C50.513 75.7686 50.6641 75.9769 50.7578 76.2061C50.8516 76.43 50.8984 76.6904 50.8984 76.9873C50.8984 77.404 50.8073 77.766 50.625 78.0732C50.4479 78.3805 50.2135 78.6331 49.9219 78.8311C49.6302 79.029 49.2969 79.1748 48.9219 79.2686C48.5469 79.3675 48.1615 79.417 47.7656 79.417C47.2656 79.417 46.7943 79.3519 46.3516 79.2217C45.9141 79.0863 45.4844 78.8779 45.0625 78.5967L45.5234 77.542ZM64.3359 71.3779C64.3359 71.8206 64.2682 72.2425 64.1328 72.6436C63.9974 73.0394 63.7682 73.3883 63.4453 73.6904C63.1276 73.9925 62.7031 74.2347 62.1719 74.417C61.6406 74.5941 60.9818 74.6826 60.1953 74.6826H58.7578V79.2686H57.2266V68.2373H60.4844C61.0365 68.2373 61.5469 68.292 62.0156 68.4014C62.4844 68.5107 62.8906 68.6904 63.2344 68.9404C63.5781 69.1852 63.8464 69.5081 64.0391 69.9092C64.237 70.3102 64.3359 70.7998 64.3359 71.3779ZM58.7578 73.3545H59.5C59.7604 73.3545 60.0208 73.3519 60.2812 73.3467C60.5469 73.3415 60.7995 73.3206 61.0391 73.2842C61.2786 73.2477 61.5 73.1904 61.7031 73.1123C61.9115 73.0342 62.0911 72.9222 62.2422 72.7764C62.3984 72.6253 62.5182 72.4378 62.6016 72.2139C62.6901 71.9847 62.7344 71.7061 62.7344 71.3779C62.7344 70.9977 62.6693 70.6904 62.5391 70.4561C62.4089 70.2217 62.237 70.0394 62.0234 69.9092C61.8099 69.7738 61.5651 69.6826 61.2891 69.6357C61.013 69.5889 60.7266 69.5654 60.4297 69.5654H58.7578V73.3545ZM65.8125 72.0889C66.0208 71.9482 66.2448 71.8206 66.4844 71.7061C66.7292 71.5915 66.9792 71.4925 67.2344 71.4092C67.4948 71.3206 67.7552 71.2529 68.0156 71.2061C68.276 71.1592 68.5286 71.1357 68.7734 71.1357C69.1484 71.1357 69.5026 71.1852 69.8359 71.2842C70.1745 71.3779 70.4688 71.529 70.7188 71.7373C70.974 71.9404 71.1745 72.2035 71.3203 72.5264C71.4661 72.8493 71.5391 73.2399 71.5391 73.6982V76.917C71.5391 77.2712 71.5469 77.5915 71.5625 77.8779C71.5781 78.1644 71.599 78.4118 71.625 78.6201C71.651 78.8649 71.6823 79.0811 71.7188 79.2686H70.3984C70.3828 79.18 70.3672 79.016 70.3516 78.7764C70.3411 78.5368 70.3307 78.2686 70.3203 77.9717C70.1484 78.2633 69.9609 78.5029 69.7578 78.6904C69.5547 78.8727 69.3438 79.0186 69.125 79.1279C68.9062 79.2373 68.6823 79.3128 68.4531 79.3545C68.224 79.3962 67.9974 79.417 67.7734 79.417C67.3828 79.417 67.0286 79.3649 66.7109 79.2607C66.3932 79.1514 66.1224 78.9951 65.8984 78.792C65.6797 78.5889 65.5104 78.3441 65.3906 78.0576C65.2708 77.7712 65.2109 77.4482 65.2109 77.0889C65.2109 76.917 65.2292 76.7347 65.2656 76.542C65.3073 76.3493 65.3724 76.1592 65.4609 75.9717C65.5495 75.7842 65.6667 75.6045 65.8125 75.4326C65.9583 75.2607 66.138 75.1071 66.3516 74.9717C66.5807 74.8258 66.8333 74.7139 67.1094 74.6357C67.3854 74.5524 67.6693 74.4925 67.9609 74.4561C68.2578 74.4144 68.5547 74.391 68.8516 74.3857C69.1484 74.3753 69.4349 74.3701 69.7109 74.3701H70.1328V73.792C70.1328 73.5055 70.0964 73.266 70.0234 73.0732C69.9505 72.8753 69.849 72.7191 69.7188 72.6045C69.5885 72.4847 69.4375 72.3988 69.2656 72.3467C69.0938 72.2946 68.9115 72.2686 68.7188 72.2686C68.5052 72.2686 68.2839 72.2946 68.0547 72.3467C67.8255 72.3936 67.6016 72.4561 67.3828 72.5342C67.1641 72.6123 66.9557 72.6982 66.7578 72.792C66.5651 72.8857 66.3932 72.9795 66.2422 73.0732L65.8125 72.0889ZM69.6562 77.6279C69.7552 77.5133 69.8333 77.3857 69.8906 77.2451C69.9531 77.1045 70 76.9456 70.0312 76.7686C70.0677 76.5915 70.0911 76.3936 70.1016 76.1748C70.1172 75.9561 70.125 75.7087 70.125 75.4326H69.8984C69.5391 75.4326 69.1667 75.4456 68.7812 75.4717C68.401 75.4977 68.0495 75.5654 67.7266 75.6748C67.4089 75.7842 67.1458 75.9535 66.9375 76.1826C66.7344 76.4066 66.6328 76.7165 66.6328 77.1123C66.6328 77.2581 66.6562 77.4014 66.7031 77.542C66.75 77.6774 66.8229 77.7998 66.9219 77.9092C67.026 78.0186 67.1536 78.1071 67.3047 78.1748C67.4609 78.2425 67.6484 78.2764 67.8672 78.2764C68.2422 78.2764 68.5885 78.2217 68.9062 78.1123C69.224 78.0029 69.474 77.8415 69.6562 77.6279ZM73.9766 73.3232C73.9766 73.2555 73.974 73.1357 73.9688 72.9639C73.9688 72.792 73.9661 72.6045 73.9609 72.4014C73.9609 72.1982 73.9557 71.9873 73.9453 71.7686C73.9401 71.5446 73.9349 71.3753 73.9297 71.2607H75.2969L75.3672 72.6514C75.5391 72.3753 75.7266 72.141 75.9297 71.9482C76.1328 71.7555 76.3359 71.5993 76.5391 71.4795C76.7474 71.3597 76.9505 71.2738 77.1484 71.2217C77.3464 71.1644 77.5286 71.1357 77.6953 71.1357C77.7995 71.1357 77.9115 71.141 78.0312 71.1514C78.1562 71.1566 78.2734 71.167 78.3828 71.1826L78.2891 72.6201C78.1484 72.5941 78.0156 72.5732 77.8906 72.5576C77.7656 72.542 77.638 72.5342 77.5078 72.5342C77.1432 72.5342 76.8307 72.5967 76.5703 72.7217C76.3099 72.8415 76.0964 73.0107 75.9297 73.2295C75.7682 73.4482 75.6484 73.7087 75.5703 74.0107C75.4922 74.3128 75.4531 74.6462 75.4531 75.0107V79.2686H73.9766V73.3232ZM82.6484 78.2764C82.7943 78.2764 82.9531 78.266 83.125 78.2451C83.3021 78.2243 83.4505 78.2008 83.5703 78.1748V79.2529C83.4089 79.2946 83.2109 79.3311 82.9766 79.3623C82.7474 79.3988 82.5156 79.417 82.2812 79.417C81.9635 79.417 81.6745 79.3831 81.4141 79.3154C81.1589 79.2529 80.9401 79.141 80.7578 78.9795C80.5807 78.818 80.4427 78.6019 80.3438 78.3311C80.25 78.055 80.2031 77.7113 80.2031 77.2998V72.4248H78.9766V71.2607H80.2422L80.5 69.3545L81.6797 69.0967V71.2607H83.5391V72.4248H81.6797V77.1279C81.6797 77.279 81.6901 77.4248 81.7109 77.5654C81.737 77.7061 81.7839 77.8285 81.8516 77.9326C81.9245 78.0368 82.0234 78.1201 82.1484 78.1826C82.2734 78.2451 82.4401 78.2764 82.6484 78.2764ZM87.1328 79.2686H85.6797V72.4326H84.4922V71.2686H87.1328V79.2686ZM87.2734 68.5107V69.8545H85.5391V68.5107H87.2734ZM92.4297 78.2764C92.5755 78.2764 92.7344 78.266 92.9062 78.2451C93.0833 78.2243 93.2318 78.2008 93.3516 78.1748V79.2529C93.1901 79.2946 92.9922 79.3311 92.7578 79.3623C92.5286 79.3988 92.2969 79.417 92.0625 79.417C91.7448 79.417 91.4557 79.3831 91.1953 79.3154C90.9401 79.2529 90.7214 79.141 90.5391 78.9795C90.362 78.818 90.224 78.6019 90.125 78.3311C90.0312 78.055 89.9844 77.7113 89.9844 77.2998V72.4248H88.7578V71.2607H90.0234L90.2812 69.3545L91.4609 69.0967V71.2607H93.3203V72.4248H91.4609V77.1279C91.4609 77.279 91.4714 77.4248 91.4922 77.5654C91.5182 77.7061 91.5651 77.8285 91.6328 77.9326C91.7057 78.0368 91.8047 78.1201 91.9297 78.1826C92.0547 78.2451 92.2214 78.2764 92.4297 78.2764ZM96.9141 79.2686H95.4609V72.4326H94.2734V71.2686H96.9141V79.2686ZM97.0547 68.5107V69.8545H95.3203V68.5107H97.0547ZM106.211 75.2686C106.211 75.8779 106.13 76.4378 105.969 76.9482C105.812 77.4535 105.578 77.891 105.266 78.2607C104.958 78.6253 104.576 78.9092 104.117 79.1123C103.659 79.3154 103.13 79.417 102.531 79.417C101.964 79.417 101.456 79.318 101.008 79.1201C100.56 78.9222 100.182 78.6436 99.875 78.2842C99.5677 77.9248 99.3307 77.4951 99.1641 76.9951C99.0026 76.4951 98.9219 75.943 98.9219 75.3389C98.9219 74.766 98.9922 74.2269 99.1328 73.7217C99.2734 73.2113 99.4922 72.766 99.7891 72.3857C100.091 72.0003 100.477 71.6956 100.945 71.4717C101.414 71.2477 101.974 71.1357 102.625 71.1357C103.266 71.1357 103.812 71.2529 104.266 71.4873C104.719 71.7165 105.089 72.0238 105.375 72.4092C105.667 72.7946 105.878 73.2373 106.008 73.7373C106.143 74.2321 106.211 74.7425 106.211 75.2686ZM100.375 75.3311C100.375 75.7633 100.417 76.1592 100.5 76.5186C100.583 76.8779 100.711 77.1878 100.883 77.4482C101.06 77.7087 101.286 77.9118 101.562 78.0576C101.839 78.2035 102.172 78.2764 102.562 78.2764C102.875 78.2764 103.164 78.2217 103.43 78.1123C103.701 77.9977 103.932 77.8206 104.125 77.5811C104.323 77.3363 104.477 77.0264 104.586 76.6514C104.695 76.2764 104.75 75.8258 104.75 75.2998C104.75 74.3258 104.568 73.5785 104.203 73.0576C103.839 72.5368 103.307 72.2764 102.609 72.2764C102.318 72.2764 102.036 72.3337 101.766 72.4482C101.5 72.5576 101.263 72.7373 101.055 72.9873C100.846 73.2321 100.68 73.5472 100.555 73.9326C100.435 74.318 100.375 74.7842 100.375 75.3311ZM113.719 79.2686V74.1123C113.719 73.5238 113.573 73.0706 113.281 72.7529C112.995 72.4352 112.589 72.2764 112.062 72.2764C111.432 72.2764 110.938 72.4951 110.578 72.9326C110.224 73.3649 110.047 73.9977 110.047 74.8311V79.2686H108.57V72.4326H107.383V71.2686H109.938L110.016 72.4404C110.172 72.2269 110.331 72.0394 110.492 71.8779C110.654 71.7113 110.831 71.5732 111.023 71.4639C111.216 71.3545 111.427 71.2712 111.656 71.2139C111.885 71.1566 112.141 71.1279 112.422 71.1279C112.708 71.1279 113.01 71.1722 113.328 71.2607C113.651 71.3441 113.948 71.4951 114.219 71.7139C114.495 71.9274 114.721 72.2165 114.898 72.5811C115.081 72.9456 115.172 73.4092 115.172 73.9717V79.2686H113.719ZM17.3281 101.269L14.2969 90.2373H15.9219C16.151 91.1488 16.3854 92.068 16.625 92.9951C16.8698 93.9222 17.1068 94.8389 17.3359 95.7451C17.3568 95.8441 17.388 95.9951 17.4297 96.1982C17.4714 96.3962 17.5182 96.6201 17.5703 96.8701C17.6224 97.1201 17.6745 97.3805 17.7266 97.6514C17.7786 97.9222 17.8255 98.1748 17.8672 98.4092C17.9141 98.6436 17.9505 98.8493 17.9766 99.0264C18.0078 99.1982 18.0234 99.3128 18.0234 99.3701L18.2188 99.3936L18.4453 98.417C18.6068 97.7503 18.7526 97.1514 18.8828 96.6201C19.0182 96.0889 19.1432 95.5993 19.2578 95.1514C19.3724 94.7035 19.4818 94.2868 19.5859 93.9014C19.6953 93.5107 19.8021 93.1253 19.9062 92.7451C20.0104 92.3597 20.1172 91.9665 20.2266 91.5654C20.3411 91.1592 20.4635 90.7165 20.5938 90.2373H22.3359L23.9141 96.0967C23.9766 96.2894 24.0469 96.5186 24.125 96.7842C24.2031 97.0446 24.2786 97.3128 24.3516 97.5889C24.4245 97.8649 24.4896 98.1305 24.5469 98.3857C24.6042 98.641 24.6406 98.8571 24.6562 99.0342L24.8594 99.0498L25.1875 97.5811C25.2344 97.3779 25.2786 97.1774 25.3203 96.9795C25.3672 96.7764 25.4089 96.5915 25.4453 96.4248C25.4818 96.2581 25.513 96.1149 25.5391 95.9951C25.5703 95.8753 25.5938 95.7894 25.6094 95.7373L26.9766 90.2373H28.5312L25.4922 101.269H23.8906L23.2734 99.0029C23.1172 98.4196 22.9557 97.8363 22.7891 97.2529C22.6276 96.6696 22.4714 96.0863 22.3203 95.5029C22.2995 95.43 22.2656 95.3024 22.2188 95.1201C22.1771 94.9378 22.1276 94.7295 22.0703 94.4951C22.0182 94.2555 21.9609 94.0055 21.8984 93.7451C21.8411 93.4795 21.7865 93.2295 21.7344 92.9951C21.6875 92.7555 21.6484 92.5472 21.6172 92.3701C21.5859 92.1878 21.5703 92.0628 21.5703 91.9951L21.3672 91.9795L20.4688 95.5264L18.8984 101.269H17.3281ZM29.5469 94.0889C29.7552 93.9482 29.9792 93.8206 30.2188 93.7061C30.4635 93.5915 30.7135 93.4925 30.9688 93.4092C31.2292 93.3206 31.4896 93.2529 31.75 93.2061C32.0104 93.1592 32.263 93.1357 32.5078 93.1357C32.8828 93.1357 33.237 93.1852 33.5703 93.2842C33.9089 93.3779 34.2031 93.529 34.4531 93.7373C34.7083 93.9404 34.9089 94.2035 35.0547 94.5264C35.2005 94.8493 35.2734 95.2399 35.2734 95.6982V98.917C35.2734 99.2712 35.2812 99.5915 35.2969 99.8779C35.3125 100.164 35.3333 100.412 35.3594 100.62C35.3854 100.865 35.4167 101.081 35.4531 101.269H34.1328C34.1172 101.18 34.1016 101.016 34.0859 100.776C34.0755 100.537 34.0651 100.269 34.0547 99.9717C33.8828 100.263 33.6953 100.503 33.4922 100.69C33.2891 100.873 33.0781 101.019 32.8594 101.128C32.6406 101.237 32.4167 101.313 32.1875 101.354C31.9583 101.396 31.7318 101.417 31.5078 101.417C31.1172 101.417 30.763 101.365 30.4453 101.261C30.1276 101.151 29.8568 100.995 29.6328 100.792C29.4141 100.589 29.2448 100.344 29.125 100.058C29.0052 99.7712 28.9453 99.4482 28.9453 99.0889C28.9453 98.917 28.9635 98.7347 29 98.542C29.0417 98.3493 29.1068 98.1592 29.1953 97.9717C29.2839 97.7842 29.401 97.6045 29.5469 97.4326C29.6927 97.2607 29.8724 97.1071 30.0859 96.9717C30.3151 96.8258 30.5677 96.7139 30.8438 96.6357C31.1198 96.5524 31.4036 96.4925 31.6953 96.4561C31.9922 96.4144 32.2891 96.391 32.5859 96.3857C32.8828 96.3753 33.1693 96.3701 33.4453 96.3701H33.8672V95.792C33.8672 95.5055 33.8307 95.266 33.7578 95.0732C33.6849 94.8753 33.5833 94.7191 33.4531 94.6045C33.3229 94.4847 33.1719 94.3988 33 94.3467C32.8281 94.2946 32.6458 94.2686 32.4531 94.2686C32.2396 94.2686 32.0182 94.2946 31.7891 94.3467C31.5599 94.3936 31.3359 94.4561 31.1172 94.5342C30.8984 94.6123 30.6901 94.6982 30.4922 94.792C30.2995 94.8857 30.1276 94.9795 29.9766 95.0732L29.5469 94.0889ZM33.3906 99.6279C33.4896 99.5133 33.5677 99.3857 33.625 99.2451C33.6875 99.1045 33.7344 98.9456 33.7656 98.7686C33.8021 98.5915 33.8255 98.3936 33.8359 98.1748C33.8516 97.9561 33.8594 97.7087 33.8594 97.4326H33.6328C33.2734 97.4326 32.901 97.4456 32.5156 97.4717C32.1354 97.4977 31.7839 97.5654 31.4609 97.6748C31.1432 97.7842 30.8802 97.9535 30.6719 98.1826C30.4688 98.4066 30.3672 98.7165 30.3672 99.1123C30.3672 99.2581 30.3906 99.4014 30.4375 99.542C30.4844 99.6774 30.5573 99.7998 30.6562 99.9092C30.7604 100.019 30.888 100.107 31.0391 100.175C31.1953 100.243 31.3828 100.276 31.6016 100.276C31.9766 100.276 32.3229 100.222 32.6406 100.112C32.9583 100.003 33.2083 99.8415 33.3906 99.6279ZM40.3281 101.417C39.7135 101.417 39.2396 101.349 38.9062 101.214C38.5781 101.073 38.3359 100.86 38.1797 100.573C38.0286 100.282 37.9401 99.9118 37.9141 99.4639C37.888 99.0107 37.875 98.4717 37.875 97.8467V91.4014H36.6875V90.2373H39.3516V98.2529C39.3516 98.6696 39.3568 99.0055 39.3672 99.2607C39.3828 99.516 39.4271 99.7139 39.5 99.8545C39.5781 99.9951 39.6979 100.089 39.8594 100.136C40.026 100.183 40.2604 100.206 40.5625 100.206L40.3281 101.417ZM44.7344 101.417C44.1198 101.417 43.6458 101.349 43.3125 101.214C42.9844 101.073 42.7422 100.86 42.5859 100.573C42.4349 100.282 42.3464 99.9118 42.3203 99.4639C42.2943 99.0107 42.2812 98.4717 42.2812 97.8467V91.4014H41.0938V90.2373H43.7578V98.2529C43.7578 98.6696 43.763 99.0055 43.7734 99.2607C43.7891 99.516 43.8333 99.7139 43.9062 99.8545C43.9844 99.9951 44.1042 100.089 44.2656 100.136C44.4323 100.183 44.6667 100.206 44.9688 100.206L44.7344 101.417ZM46.3828 99.542C46.5391 99.6618 46.7109 99.7686 46.8984 99.8623C47.0859 99.9508 47.2812 100.026 47.4844 100.089C47.6875 100.151 47.8932 100.198 48.1016 100.229C48.3151 100.261 48.5208 100.276 48.7188 100.276C48.9323 100.276 49.1354 100.253 49.3281 100.206C49.5208 100.159 49.6875 100.086 49.8281 99.9873C49.974 99.8883 50.0885 99.766 50.1719 99.6201C50.2604 99.4691 50.3047 99.2946 50.3047 99.0967C50.3047 98.9561 50.2786 98.8311 50.2266 98.7217C50.1745 98.6071 50.0833 98.4977 49.9531 98.3936C49.8281 98.2894 49.6536 98.1878 49.4297 98.0889C49.2109 97.9847 48.9349 97.8701 48.6016 97.7451C48.2318 97.6097 47.8932 97.4743 47.5859 97.3389C47.2839 97.2035 47.0234 97.0498 46.8047 96.8779C46.5911 96.7008 46.4245 96.4925 46.3047 96.2529C46.1849 96.0081 46.125 95.7113 46.125 95.3623C46.125 94.9873 46.2031 94.6592 46.3594 94.3779C46.5156 94.0967 46.724 93.8649 46.9844 93.6826C47.25 93.5003 47.5547 93.3649 47.8984 93.2764C48.2422 93.1826 48.599 93.1357 48.9688 93.1357C49.4375 93.1357 49.9062 93.2061 50.375 93.3467C50.849 93.4873 51.2812 93.6982 51.6719 93.9795L51.1953 94.9795C51.0234 94.8701 50.8438 94.7738 50.6562 94.6904C50.4688 94.6019 50.2786 94.529 50.0859 94.4717C49.8932 94.4092 49.7031 94.3623 49.5156 94.3311C49.3333 94.2946 49.1615 94.2764 49 94.2764C48.7969 94.2764 48.6042 94.2972 48.4219 94.3389C48.2448 94.3805 48.0885 94.443 47.9531 94.5264C47.8229 94.6045 47.7188 94.7061 47.6406 94.8311C47.5625 94.9508 47.5234 95.0889 47.5234 95.2451C47.5234 95.391 47.5599 95.5238 47.6328 95.6436C47.7057 95.7633 47.8099 95.8753 47.9453 95.9795C48.0859 96.0785 48.2552 96.1748 48.4531 96.2686C48.6562 96.3623 48.8854 96.4535 49.1406 96.542C49.6146 96.7139 50.0182 96.8831 50.3516 97.0498C50.6849 97.2165 50.9557 97.3936 51.1641 97.5811C51.3724 97.7686 51.5234 97.9769 51.6172 98.2061C51.7109 98.43 51.7578 98.6904 51.7578 98.9873C51.7578 99.404 51.6667 99.766 51.4844 100.073C51.3073 100.381 51.0729 100.633 50.7812 100.831C50.4896 101.029 50.1562 101.175 49.7812 101.269C49.4062 101.368 49.0208 101.417 48.625 101.417C48.125 101.417 47.6536 101.352 47.2109 101.222C46.7734 101.086 46.3438 100.878 45.9219 100.597L46.3828 99.542Z" fill="#4F8280"/>
</g>
<defs>
<filter id="filter0_d_88_4996" x="0.5" y="0.768555" width="154" height="154" filterUnits="userSpaceOnUse" color-interpolation-filters="sRGB">
<feFlood flood-opacity="0" result="BackgroundImageFix"/>
<feColorMatrix in="SourceAlpha" type="matrix" values="0 0 0 0 0 0 0 0 0 0 0 0 0 0 0 0 0 0 127 0" result="hardAlpha"/>
<feOffset dx="0.5" dy="0.5"/>
<feGaussianBlur stdDeviation="1"/>
<feComposite in2="hardAlpha" operator="out"/>
<feColorMatrix type="matrix" values="0 0 0 0 0 0 0 0 0 0 0 0 0 0 0 0 0 0 0.25 0"/>
<feBlend mode="normal" in2="BackgroundImageFix" result="effect1_dropShadow_88_4996"/>
<feBlend mode="normal" in="SourceGraphic" in2="effect1_dropShadow_88_4996" result="shape"/>
</filter>
</defs>
</svg>
